<svg width="61" height="9" viewBox="0 0 61 9" fill="none" xmlns="http://www.w3.org/2000/svg">
<path d="M0.643066 4.84828C0.361993 4.84828 0.134138 4.62043 0.134138 4.33936C0.134138 4.05828 0.361993 3.83043 0.643066 3.83043L0.643066 4.84828ZM60.7172 3.97948C60.916 4.17823 60.916 4.50047 60.7172 4.69922L57.4784 7.93802C57.2797 8.13677 56.9574 8.13677 56.7587 7.93802C56.5599 7.73927 56.5599 7.41703 56.7587 7.21829L59.6376 4.33935L56.7587 1.46042C56.5599 1.26167 56.5599 0.939431 56.7587 0.740682C56.9574 0.541933 57.2797 0.541933 57.4784 0.740682L60.7172 3.97948ZM0.643066 3.83043L60.3574 3.83042L60.3574 4.84828L0.643066 4.84828L0.643066 3.83043Z" fill="white"/>
</svg>
