<svg width="95" height="247" viewBox="0 0 95 247" fill="none" xmlns="http://www.w3.org/2000/svg">
<path fill-rule="evenodd" clip-rule="evenodd" d="M76.3443 46.9657C91.9733 37.8836 105.309 26.5493 121.695 19.1708C140.426 10.7367 159.14 -1.2892 178.745 0.857041C199.511 3.13047 216.011 16.8632 230.555 31.0884C246.439 46.6238 262.115 63.7494 266.076 86.2717C270.204 109.751 267.663 136.967 252.719 157.128C238.234 176.669 209.179 174.883 189.684 189.33C167.763 205.574 158.706 247.19 132.677 246.083C105.987 244.948 106.323 202.227 87.0395 184.966C71.6214 171.165 46.4454 172.339 32.8418 156.719C16.3297 137.759 -7.11596 113.305 2.81336 88.2539C13.3631 61.6379 51.519 61.3919 76.3443 46.9657Z" fill="url(#paint0_linear_18_53)"/>
<defs>
<linearGradient id="paint0_linear_18_53" x1="55.4024" y1="27.1734" x2="228.285" y2="184.283" gradientUnits="userSpaceOnUse">
<stop stop-color="#422291"/>
<stop offset="1" stop-color="#7F7FDE"/>
</linearGradient>
</defs>
</svg>
