<svg width="138" height="92" viewBox="0 0 138 92" fill="none" xmlns="http://www.w3.org/2000/svg">
<path fill-rule="evenodd" clip-rule="evenodd" d="M-53.6557 -108.034C-38.0267 -117.116 -24.6914 -128.451 -8.30503 -135.829C10.4258 -144.263 29.1399 -156.289 48.7446 -154.143C69.5112 -151.87 86.0108 -138.137 100.555 -123.912C116.439 -108.376 132.115 -91.2506 136.076 -68.7283C140.204 -45.2495 137.663 -18.033 122.719 2.12799C108.234 21.6693 79.1793 19.8833 59.6835 34.3303C37.763 50.5741 28.7064 92.1896 2.67679 91.0829C-24.0134 89.9481 -23.6771 47.227 -42.9605 29.966C-58.3786 16.165 -83.5546 17.3389 -97.1582 1.71865C-113.67 -17.2413 -137.116 -41.6953 -127.187 -66.7461C-116.637 -93.3621 -78.481 -93.6081 -53.6557 -108.034Z" fill="url(#paint0_linear_18_74)"/>
<defs>
<linearGradient id="paint0_linear_18_74" x1="-74.5976" y1="-127.827" x2="98.2851" y2="29.2829" gradientUnits="userSpaceOnUse">
<stop stop-color="#7F7FDE"/>
<stop offset="1" stop-color="#422291"/>
</linearGradient>
</defs>
</svg>
