<svg width="69" height="259" viewBox="0 0 69 259" fill="none" xmlns="http://www.w3.org/2000/svg">
<path fill-rule="evenodd" clip-rule="evenodd" d="M-139.865 167.844C-143.437 150.125 -149.879 133.852 -151.594 115.963C-153.555 95.5149 -158.922 73.927 -150.584 56.0547C-141.751 37.1231 -123.441 25.9178 -105.293 16.7223C-85.4741 6.67977 -64.2162 -2.65443 -41.617 0.840307C-18.0579 4.48346 6.8946 15.6443 21.177 36.2796C35.0204 56.2806 23.9834 83.2164 31.3913 106.323C39.7207 132.304 76.2112 154.265 66.7904 178.556C57.1304 203.462 16.7881 189.402 -5.7584 202.108C-23.7854 212.267 -30.7723 236.483 -49.9382 244.339C-73.2019 253.875 -103.898 268.208 -124.423 250.748C-146.231 232.198 -134.191 195.991 -139.865 167.844Z" fill="#7F7FDE"/>
</svg>
