<svg width="198" height="210" viewBox="0 0 198 210" fill="none" xmlns="http://www.w3.org/2000/svg">
<path d="M174.349 178.567C170.302 183.002 166.468 185.86 163.442 188.123C127.852 214.677 85.7443 206.939 76.8004 205.046C63.5878 202.256 38.0408 196.856 19.5747 174.276C-8.3636 140.104 -4.01654 86.2706 17.6546 50.7336C21.6162 44.2326 42.5592 8.15262 85.1233 2.36805C110.884 -1.13134 140.907 5.92778 162.65 24.8728C208.283 64.6256 205.035 144.968 174.349 178.567Z" fill="url(#paint0_linear_18_194)"/>
<path d="M37.7265 59.3537C37.7479 58.3507 38.5474 57.5437 39.5253 57.5437H98.9352C99.9274 57.5437 100.984 58.3808 100.984 59.399V201.66C100.984 202.422 100.563 203.146 100.042 203.689C99.5134 204.224 98.7425 204.526 98.0001 204.526L37.9406 204.36C37.1911 204.36 36.4631 204.051 35.942 203.5C35.4209 202.95 35.1282 202.211 35.1354 201.441L37.7265 59.3537Z" fill="#BDD0FB"/>
<g opacity="0.52">
<path d="M71.8394 67.6196L91.2762 67.5518L91.2691 65.0554L71.8536 65.1157L71.8394 67.6196Z" fill="white"/>
<path d="M71.7896 76.8131L91.2978 76.715L91.2907 74.2036L71.8038 74.2866L71.7896 76.8131Z" fill="white"/>
<path d="M71.7324 86.0747L91.3263 85.9615L91.3192 83.4275L71.7467 83.5331L71.7324 86.0747Z" fill="white"/>
<path d="M71.6826 95.419L91.3551 95.2832L91.3479 92.7266L71.6969 92.8548L71.6826 95.419Z" fill="white"/>
<path d="M71.6255 104.839L91.3836 104.68L91.3764 102.101L71.6398 102.252L71.6255 104.839Z" fill="white"/>
<path d="M71.5107 123.919L91.433 123.708L91.4259 121.083L71.525 121.287L71.5107 123.919Z" fill="white"/>
<path d="M71.3467 153.144L91.5188 152.857L91.5116 150.172L71.361 150.451L71.3467 153.144Z" fill="white"/>
<path d="M71.5684 114.341L91.4121 114.153L91.3978 111.551L71.5826 111.732L71.5684 114.341Z" fill="white"/>
<path d="M71.4609 133.58L91.4617 133.346L91.4546 130.699L71.4752 130.925L71.4609 133.58Z" fill="white"/>
<path d="M71.4038 143.317L91.4903 143.06L91.4831 140.391L71.4181 140.647L71.4038 143.317Z" fill="white"/>
<path d="M71.2896 163.054L91.5473 162.744L91.5402 160.029L71.3038 160.331L71.2896 163.054Z" fill="white"/>
<path d="M71.2256 173.046L91.5761 172.707L91.569 169.977L71.247 170.301L71.2256 173.046Z" fill="white"/>
<path d="M71.1685 183.13L91.6047 182.76L91.5975 180.008L71.1899 180.362L71.1685 183.13Z" fill="white"/>
<path d="M71.1113 193.296L91.6403 192.904L91.6261 190.121L71.1256 190.506L71.1113 193.296Z" fill="white"/>
<path d="M46.3638 67.7102L65.9149 67.6423L65.9363 65.1384L46.4066 65.1988L46.3638 67.7102Z" fill="white"/>
<path d="M46.1997 76.9264L65.8365 76.8359L65.8579 74.3169L46.2497 74.3999L46.1997 76.9264Z" fill="white"/>
<path d="M46.043 86.2252L65.7582 86.1121L65.7796 83.563L46.0858 83.6761L46.043 86.2252Z" fill="white"/>
<path d="M45.8784 95.5996L65.6793 95.4563L65.7008 92.8921L45.9284 93.0278L45.8784 95.5996Z" fill="white"/>
<path d="M45.7212 105.05L65.6006 104.891L65.622 102.297L45.764 102.455L45.7212 105.05Z" fill="white"/>
<path d="M45.3931 124.191L65.4438 123.979L65.4652 121.347L45.4359 121.551L45.3931 124.191Z" fill="white"/>
<path d="M44.8862 153.513L65.194 153.234L65.2154 150.534L44.9291 150.813L44.8862 153.513Z" fill="white"/>
<path d="M45.5571 114.582L65.5222 114.394L65.5436 111.784L45.6 111.965L45.5571 114.582Z" fill="white"/>
<path d="M45.2217 133.882L65.3581 133.648L65.3795 130.993L45.2717 131.227L45.2217 133.882Z" fill="white"/>
<path d="M45.0571 143.656L65.2792 143.4L65.3006 140.722L45.1 140.979L45.0571 143.656Z" fill="white"/>
<path d="M44.7148 163.461L65.1082 163.144L65.1296 160.429L44.7577 160.731L44.7148 163.461Z" fill="white"/>
<path d="M44.5435 173.484L65.0225 173.152L65.051 170.407L44.5863 170.739L44.5435 173.484Z" fill="white"/>
<path d="M44.3652 183.605L64.9371 183.236L64.9656 180.468L44.4152 180.83L44.3652 183.605Z" fill="white"/>
<path d="M44.1934 193.809L64.8508 193.409L64.8794 190.619L44.2362 191.004L44.1934 193.809Z" fill="white"/>
</g>
<path d="M88.1925 129.741C83.924 115.578 75.6581 104.288 65.8719 97.6511C57.1206 91.7157 50.8177 82.477 48.4836 71.8053C48.2409 70.6816 47.9483 69.5578 47.6056 68.4341C42.4734 51.3972 28.3829 40.9292 16.1411 45.047C3.89941 49.1648 -1.86099 66.3149 3.2784 83.3518C4.32769 86.8361 5.7553 90.0414 7.46129 92.9073C12.9148 102.055 15.049 113.021 13.0432 123.625C11.2516 133.105 11.737 143.777 14.942 154.396C19.7173 170.233 29.4821 182.481 40.7888 188.643C45.0645 190.973 48.9262 194.111 52.1169 197.897C57.4276 204.194 64.9011 207.15 71.775 204.843C79.1915 202.346 83.8169 194.42 84.1524 185.159C84.338 179.925 85.5086 174.789 87.4073 169.939C91.89 158.483 92.511 144.063 88.1925 129.741Z" fill="#6448AD"/>
<path opacity="0.57" d="M25.9059 61.7292C30.9026 72.4537 35.5637 83.3365 40.1106 94.2646C41.2527 96.9947 42.3448 99.7475 43.4512 102.5L45.1073 106.626L46.7347 110.766C47.8054 113.526 48.919 116.279 49.9611 119.054L53.0947 127.381C55.1148 132.962 57.1777 138.52 59.105 144.139C60.0686 146.944 61.0893 149.735 61.9959 152.563L64.7654 161.032C68.3487 172.367 71.6608 183.801 74.416 195.393L73.9449 195.521L71.568 186.931L70.9755 184.781L70.3331 182.647L69.0482 178.386L67.7705 174.125C67.3494 172.699 66.8711 171.297 66.4214 169.886C65.5078 167.066 64.6155 164.237 63.6876 161.417C59.8973 150.18 55.9714 138.995 51.8242 127.901C49.7113 122.373 47.6413 116.822 45.4927 111.302L43.8938 107.161L42.2592 103.036C41.1742 100.283 40.0821 97.5302 38.9685 94.7925C36.7843 89.2945 34.5572 83.8041 32.2945 78.3363C30.0531 72.8609 27.769 67.4007 25.4634 61.9555L25.9059 61.7292Z" fill="white"/>
<path d="M123.919 101.588C121.92 86.1196 115.324 72.8611 106.373 64.1201C98.3644 56.3068 93.4392 45.5447 92.8467 34.0585C92.7825 32.8518 92.6754 31.6301 92.5184 30.4007C90.12 11.7951 77.3857 -1.73488 64.0733 0.18074C50.7608 2.09636 41.9168 18.7336 44.3223 37.3392C44.8149 41.1403 45.7357 44.7377 47.0062 48.0259C51.0678 58.5241 51.4033 70.2743 47.5344 80.8629C44.0796 90.3279 42.7734 101.46 44.2652 113.059C46.4994 130.36 54.4798 144.893 65.0869 153.43C69.0985 156.658 72.539 160.64 75.1872 165.173C79.5842 172.699 86.7937 177.194 94.2601 176.116C102.319 174.954 108.436 167.639 110.349 158.129C111.434 152.751 113.504 147.661 116.281 143.007C122.848 132.019 125.939 117.23 123.919 101.588Z" fill="#6448AD"/>
<path opacity="0.57" d="M71.2831 19.3066C74.6094 31.3509 77.5645 43.5007 80.3983 55.6808C81.105 58.7276 81.7688 61.7821 82.4469 64.8365L83.4534 69.4219L84.4242 74.0149C85.0595 77.0768 85.7376 80.1313 86.3443 83.2008L88.1574 92.4169C89.2923 98.571 90.4772 104.725 91.5051 110.902C92.0191 113.994 92.5972 117.071 93.0541 120.171L94.4674 129.462C96.2376 141.868 97.7081 154.335 98.5789 166.847L98.0721 166.892L97.0799 157.555L96.8372 155.217L96.5374 152.887L95.9307 148.234L95.3382 143.58C95.1455 142.027 94.8885 140.481 94.6744 138.935C94.2104 135.843 93.775 132.743 93.2968 129.651C91.3052 117.305 89.1496 104.982 86.7655 92.711C85.5234 86.5871 84.3385 80.448 83.0537 74.3316L82.1043 69.7387L81.1193 65.1533C80.4626 62.0988 79.813 59.0444 79.1278 55.9975C77.8072 49.8887 76.451 43.7873 75.0448 37.7011C73.6672 31.6073 72.2395 25.5211 70.7905 19.4499L71.2831 19.3066Z" fill="white"/>
<path d="M185.091 207.92H68.9127C68.0062 207.92 67.271 207.143 67.271 206.185V40.2956C67.271 39.3378 68.0062 38.561 68.9127 38.561H185.099C186.005 38.561 186.74 39.3378 186.74 40.2956V206.178C186.74 207.143 185.998 207.92 185.091 207.92Z" fill="url(#paint1_linear_18_194)"/>
<path d="M166.397 185.611H87.3502C84.3522 185.611 81.9253 183.047 81.9253 179.879V69.7389C81.9253 66.5713 84.3522 64.0071 87.3502 64.0071H166.397C169.395 64.0071 171.822 66.5713 171.822 69.7389V179.879C171.822 183.039 169.395 185.611 166.397 185.611Z" fill="#6448AD"/>
<path d="M163.407 177.149H90.4131C89.5137 177.149 88.7856 176.38 88.7856 175.43V75.7271C88.7856 74.7768 89.5137 74.0076 90.4131 74.0076H163.407C164.306 74.0076 165.034 74.7768 165.034 75.7271V175.43C165.034 176.38 164.306 177.149 163.407 177.149Z" fill="#6448AD"/>
<path d="M129.309 54.2223C130.706 52.7467 130.706 50.3544 129.309 48.8788C127.913 47.4032 125.648 47.4032 124.252 48.8788C122.855 50.3544 122.855 52.7467 124.252 54.2223C125.648 55.6978 127.913 55.6978 129.309 54.2223Z" fill="white"/>
<path d="M149.872 112.508L103.889 113.315C100.392 113.376 97.5435 116.249 97.5435 119.741V150.338C97.5435 153.822 100.392 156.53 103.889 156.379L149.872 154.426C153.177 154.282 155.847 151.439 155.847 148.075V118.504C155.847 115.133 153.177 112.448 149.872 112.508Z" fill="#E2E2E2"/>
<path d="M152.2 106.973C150.808 106.995 149.673 105.856 149.673 104.439V97.7415C149.673 91.0217 144.298 85.5765 137.638 85.5916L122.655 85.6369C115.824 85.6595 110.228 91.2706 110.228 98.1412V104.997C110.228 106.452 109.043 107.651 107.58 107.674C106.109 107.697 104.924 106.535 104.924 105.072V98.2015C104.924 88.3896 112.926 80.4104 122.655 80.4104H137.638C147.096 80.4104 154.712 88.1634 154.712 97.6962V104.371C154.719 105.789 153.591 106.95 152.2 106.973Z" fill="#E2E2E2"/>
<path d="M134.326 129.462C134.326 126.061 131.514 123.391 128.102 123.64C125.082 123.859 122.584 126.415 122.42 129.462C122.291 131.831 123.526 133.874 125.396 134.915C126.196 135.353 126.588 136.28 126.431 137.2L125.118 144.983C124.954 145.971 125.703 146.846 126.695 146.809L130.072 146.68C131.057 146.643 131.806 145.715 131.642 144.742L130.329 137.027C130.172 136.107 130.621 135.194 131.421 134.689C133.163 133.595 134.326 131.65 134.326 129.462Z" fill="#A5A5A5"/>
<path d="M41.9742 208.214C41.9742 208.146 41.9742 208.078 41.9527 208.01C40.9962 204.013 36.2637 201.532 36.2637 201.532L34.3936 201.683C33.3157 205.205 33.4513 207.362 33.6298 208.327C33.6369 208.357 33.6441 208.38 33.6512 208.403C35.193 208.553 38.3766 208.644 41.9742 208.214Z" fill="url(#paint2_linear_18_194)"/>
<path d="M33.644 208.402C33.7297 208.727 33.951 208.976 34.2365 209.036C36.435 209.526 39.9327 209.134 41.4031 208.93C41.7243 208.885 41.967 208.568 41.967 208.214C38.3766 208.644 35.193 208.553 33.644 208.402Z" fill="#6448AD"/>
<path d="M33.6367 198.734L34.429 202.776C34.4861 203.07 34.7003 203.297 34.9644 203.319C35.2856 203.349 35.7353 203.372 36.1921 203.297C36.599 203.236 36.8845 202.791 36.8131 202.324L36.2635 198.734H33.6367Z" fill="url(#paint3_linear_18_194)"/>
<path d="M50.0969 208.35C48.0269 208.289 46.9562 208.033 46.3994 207.792C46.3994 208.01 46.3994 208.229 46.4066 208.463C46.4137 208.704 46.585 208.9 46.7992 208.9L58.17 208.825C58.5341 208.825 58.7482 208.38 58.5912 208.025C57.0922 208.154 53.2948 208.448 50.0969 208.35Z" fill="#6448AD"/>
<path d="M58.5841 208.025C58.5698 207.995 58.5555 207.965 58.5412 207.935C57.5348 206.449 54.9793 203.5 49.9256 202.218L47.4987 202.135C47.4987 202.135 46.4208 204.119 46.3994 207.792C46.9562 208.033 48.0269 208.289 50.0969 208.35C53.2948 208.448 57.0922 208.154 58.5841 208.025Z" fill="url(#paint4_linear_18_194)"/>
<path d="M46.9424 198.379C46.9781 198.568 47.4849 201.441 47.6776 202.558C47.7276 202.822 47.9203 203.018 48.1487 203.033C48.5627 203.055 49.2337 203.063 49.8119 202.897C50.1259 202.806 50.3329 202.475 50.3115 202.105L50.0403 197.557L46.9424 198.379Z" fill="url(#paint5_linear_18_194)"/>
<path d="M45.1004 145.3C45.1004 145.3 48.4339 169.517 50.8465 198.334C50.8893 198.87 50.4896 199.337 49.9899 199.45C49.2547 199.616 48.1769 199.805 47.2775 199.782C46.7992 199.767 46.3995 199.39 46.321 198.892C45.5001 193.809 39.6469 166.546 38.1122 160.542C38.1122 160.542 36.3492 186.034 36.9131 199.262C36.9273 199.594 36.6989 199.873 36.392 199.91C35.9209 199.971 35.1714 200.008 34.2149 199.903C33.8508 199.865 33.5582 199.571 33.5082 199.194C32.9229 194.895 29.5609 169.298 29.7036 150.859C29.7108 149.818 30.86 141.273 30.86 141.273L45.1004 145.3Z" fill="url(#paint6_linear_18_194)"/>
<path d="M46.3926 104.574L46.8423 117.244C48.1128 117.704 49.3192 118.067 50.4684 118.33C51.1893 115.887 52.774 112.878 54.066 110.645C49.3049 108.873 46.3926 104.574 46.3926 104.574Z" fill="url(#paint7_linear_18_194)"/>
<path d="M30.3529 146.695C30.0103 146.567 29.7676 146.235 29.7319 145.858C29.2893 141.31 27.1408 113.119 40.6959 101.52C40.6959 101.52 41.474 99.3705 47.8625 104.657C54.2511 109.944 50.8319 115.48 49.3044 123.12C47.4557 132.366 44.2007 139.915 45.6426 145.609C45.7425 146.001 45.5498 146.416 45.1857 146.552C40.2248 148.483 35.2782 148.543 30.3529 146.695Z" fill="url(#paint8_linear_18_194)"/>
<path d="M45.993 93.0732C45.9858 93.473 40.5752 101.603 40.5752 101.603C40.5752 101.603 41.546 103.624 46.1857 105.268L50.1901 96.5651L45.993 93.0732Z" fill="url(#paint9_linear_18_194)"/>
<path d="M43.3084 120.88C43.2727 120.88 43.237 120.872 43.2085 120.85C38.8828 117.765 36.8485 112.78 36.8271 112.727C36.7914 112.629 36.8342 112.524 36.9199 112.486C37.0127 112.448 37.1126 112.486 37.1483 112.584C37.1697 112.629 39.1612 117.516 43.4012 120.54C43.4797 120.601 43.5011 120.714 43.4512 120.797C43.4226 120.85 43.3655 120.88 43.3084 120.88Z" fill="url(#paint10_linear_18_194)"/>
<path d="M49.7543 113.972C49.6972 113.972 49.6401 113.941 49.6044 113.889C49.5901 113.866 48.2696 111.694 45.7498 106.935C44.9789 105.472 43.9582 104.544 42.7233 104.182C40.6818 103.579 38.7189 104.733 38.6975 104.748C38.6118 104.801 38.5047 104.771 38.4548 104.68C38.4048 104.59 38.4333 104.476 38.519 104.424C38.6047 104.371 40.6247 103.179 42.809 103.82C44.1366 104.212 45.2288 105.2 46.0496 106.754C48.5622 111.505 49.8756 113.67 49.8899 113.692C49.9399 113.775 49.9185 113.896 49.8399 113.949C49.8185 113.956 49.7828 113.972 49.7543 113.972Z" fill="url(#paint11_linear_18_194)"/>
<path d="M50.2535 88.4197C50.2535 88.4197 52.1807 93.0956 52.3092 95.5467C52.4377 97.9978 52.9374 99.5966 50.2535 100.087C47.5695 100.585 45.3068 99.1668 44.079 96.7232C44.079 96.7232 42.1589 92.9598 42.5872 91.4138C43.0226 89.8753 50.2535 88.4197 50.2535 88.4197Z" fill="url(#paint12_linear_18_194)"/>
<path d="M45.0003 94.9663L45.1502 94.8984C45.3429 94.8079 45.4286 94.5665 45.3286 94.3629C44.9503 93.5861 44.2151 91.8213 45.1645 91.4065C46.3922 90.8711 51.2603 89.8227 52.3096 87.9976C53.3161 86.2404 52.4238 83.9779 51.0819 83.3368C50.9891 83.2916 50.8892 83.3293 50.8392 83.4198L50.725 83.646C50.6465 83.7968 50.4323 83.7742 50.3895 83.6083C50.3467 83.4499 50.1468 83.4198 50.0612 83.5555C49.7399 84.0985 48.8691 84.9884 46.535 85.441C43.2229 86.0896 41.0315 87.5074 40.9744 89.9208C40.9744 90.0716 40.8174 90.1621 40.6889 90.0792C40.4462 89.9208 40.0536 89.8454 39.5325 90.313C38.626 91.1199 38.9972 93.2166 40.9887 94.9436C41.0815 95.0266 41.0815 95.185 40.9816 95.2528C40.6175 95.5017 40.0822 96.09 41.4812 96.8819C42.9231 97.6964 44.0081 97.6285 44.4221 97.5606C44.522 97.5456 44.5934 97.44 44.572 97.3268L44.1294 95.2001C44.1009 95.0794 44.1937 94.9663 44.3079 94.9663H45.0003Z" fill="url(#paint13_linear_18_194)"/>
<path d="M45.0783 95.4185C45.0783 95.4185 44.3431 92.432 43.0725 93.2691C41.802 94.1063 43.7292 96.6177 44.75 96.7308L45.0783 95.4185Z" fill="url(#paint14_linear_18_194)"/>
<path d="M70.0264 103.624C70.0264 103.624 69.0627 101.814 69.1199 100.939C69.1841 100.057 68.663 98.7673 69.2127 98.8654C69.7623 98.9634 69.8765 98.8805 70.0264 99.9363C70.1834 100.992 71.9251 105.593 70.0264 103.624Z" fill="url(#paint15_linear_18_194)"/>
<path d="M70.2045 100.75L70.183 104.363C63.6446 111.822 58.3553 112.259 54.0653 110.653C52.7662 112.885 51.1816 115.887 50.4678 118.338C67.9203 122.403 72.0318 105.449 72.0318 105.449C74.3945 104.416 74.8727 103.812 74.7728 103.134L70.2045 100.75Z" fill="url(#paint16_linear_18_194)"/>
<path d="M75.2373 97.1608C74.6805 96.9195 73.5884 94.7248 73.3814 95.4488C73.1744 96.1728 73.467 97.1608 73.3814 97.47C73.2957 97.7792 71.9324 101.316 72.2036 102.101C72.3963 102.666 73.4813 102.583 73.6455 103.511C73.7026 103.82 73.931 104.039 74.2023 104.039C74.4735 104.039 74.7091 103.82 74.759 103.511C74.7804 103.39 75.794 97.4021 75.2373 97.1608Z" fill="url(#paint17_linear_18_194)"/>
<path d="M57.4203 89.6338C53.0161 98.8423 56.5066 110.087 65.2222 114.74C72.3103 118.526 80.6618 116.792 85.9082 111.068L116.195 127.245C116.695 127.516 117.294 127.494 117.78 127.184L120.742 125.322C120.792 125.291 120.842 125.254 120.885 125.216C120.899 125.208 120.913 125.193 120.92 125.186C120.956 125.156 120.985 125.126 121.02 125.095C121.035 125.088 121.042 125.073 121.056 125.065C121.099 125.027 121.134 124.982 121.17 124.937C121.541 124.462 121.656 123.791 121.427 123.187L119.022 116.814C118.872 116.422 118.593 116.098 118.236 115.909L115.203 114.288L114.403 115.962L111.798 114.567L112.597 112.893L110.156 111.588L109.421 113.134L106.252 111.445L106.987 109.899L105.809 109.265L105.431 110.057L102.775 108.639L103.154 107.847L101.091 106.746L100.291 108.42L98.8138 107.636L99.6133 105.962L98.3356 105.275L97.5361 106.95L94.9807 105.585L95.7801 103.91L92.1826 101.987L90.6408 101.165C91.897 93.3066 88.2638 85.169 81.1757 81.3831C72.4673 76.7373 61.8245 80.4253 57.4203 89.6338ZM67.7348 90.9083C69.4979 91.8511 70.2045 94.1287 69.3123 95.9915C68.42 97.8543 66.2643 98.601 64.5013 97.6583C62.7382 96.7155 62.0315 94.4379 62.9237 92.5751C63.816 90.7123 65.9717 89.9656 67.7348 90.9083Z" fill="#878787"/>
<path d="M114.946 115.005L115.746 113.33L118.779 114.952C119.136 115.141 119.415 115.465 119.564 115.857L121.97 122.23C122.27 123.022 121.977 123.934 121.285 124.372L118.322 126.235C117.837 126.536 117.237 126.559 116.738 126.295L80.1768 106.762L81.9684 95.283L96.3301 102.953L95.5307 104.627L98.0861 105.992L98.8856 104.318L100.163 105.004L99.3638 106.679L100.841 107.463L101.641 105.789L103.704 106.89L103.325 107.682L105.981 109.1L106.359 108.308L107.537 108.941L106.802 110.487L109.971 112.177L110.706 110.631L113.147 111.935" fill="#CECECE"/>
<path d="M65.7652 113.783C74.4807 118.436 85.1235 114.748 89.5277 105.54C93.9319 96.3312 90.4414 85.0864 81.7258 80.4331C73.0103 75.7798 62.3674 79.4678 57.9633 88.6763C53.5591 97.8848 57.0496 109.13 65.7652 113.783ZM65.0514 96.7008C63.2883 95.758 62.5816 93.4804 63.4738 91.6176C64.3661 89.7548 66.5218 89.0081 68.2849 89.9509C70.048 90.8936 70.7547 93.1712 69.8624 95.034C68.9701 96.8969 66.8145 97.6435 65.0514 96.7008Z" fill="url(#paint18_linear_18_194)"/>
<path d="M116.745 126.295C117.245 126.566 117.844 126.544 118.33 126.234L121.292 124.372C121.742 124.093 122.013 123.617 122.077 123.105C119.315 119.945 93.0753 107.84 92.0974 105.344C91.7476 104.454 91.6905 103.111 92.7327 101.03L91.1909 100.208C92.4472 92.3491 88.8139 84.2115 81.7258 80.4255C73.0103 75.7722 62.3674 79.4602 57.9633 88.6687C53.5591 97.8773 57.0496 109.122 65.7652 113.775C72.8532 117.561 81.2047 115.827 86.4512 110.103M68.2849 89.9508C70.048 90.8936 70.7547 93.1712 69.8624 95.034C68.9701 96.8968 66.8145 97.6435 65.0514 96.7008C63.2883 95.758 62.5816 93.4804 63.4738 91.6176C64.3661 89.7547 66.5147 89.0081 68.2849 89.9508Z" fill="#BCBCBC"/>
<path d="M67.3348 110.51C74.3443 114.25 82.8957 111.286 86.4362 103.88C89.9766 96.4744 87.1714 87.4393 80.1618 83.6986C73.1523 79.9578 64.6009 82.9218 61.0604 90.3278C57.52 97.7339 60.3252 106.769 67.3348 110.51ZM65.0506 96.7006C63.2875 95.7579 62.5808 93.4803 63.4731 91.6175C64.3653 89.7546 66.521 89.008 68.2841 89.9507C70.0472 90.8935 70.7539 93.1711 69.8616 95.0339C68.9694 96.8967 66.8137 97.6434 65.0506 96.7006Z" fill="#E2E2E2"/>
<path d="M43.3091 120.88C43.3091 120.88 59.9621 126.77 69.2844 119.273C69.8626 118.806 70.5907 118.602 71.3116 118.73L74.8735 119.341C76.3653 119.598 77.7929 118.572 78.1142 117.011C78.2998 116.121 78.3854 115.148 78.1998 114.303L71.4829 113.873L71.6757 112.953C71.6757 112.953 68.7062 113.723 68.6491 116.174C68.6491 116.174 61.6824 120.993 48.9767 113.511C48.9624 113.519 44.0157 117.614 43.3091 120.88Z" fill="url(#paint19_linear_18_194)"/>
<g opacity="0.3">
<path d="M171.957 32.6482C171.572 32.6331 171.265 32.2862 171.287 31.879C171.315 31.0795 171.315 30.2726 171.279 29.4731C171.265 29.0659 171.558 28.7265 171.936 28.6963C171.943 28.6963 171.943 28.6963 171.95 28.6963C172.336 28.6812 172.664 28.998 172.686 29.4053C172.721 30.2499 172.721 31.1022 172.693 31.9393C172.678 32.3239 172.393 32.6256 172.036 32.6482C172.007 32.6482 171.986 32.6482 171.957 32.6482ZM170.865 25.5816C170.73 24.7972 170.558 24.0053 170.359 23.2361C170.259 22.8439 170.48 22.4291 170.851 22.3235C171.229 22.2179 171.615 22.4517 171.715 22.8439C171.922 23.6509 172.1 24.4805 172.243 25.3101C172.314 25.7098 172.057 26.1019 171.679 26.1774C171.651 26.1849 171.622 26.1849 171.593 26.1849C171.251 26.2151 170.93 25.9587 170.865 25.5816ZM169.145 19.5557C168.845 18.8241 168.517 18.0926 168.16 17.3912C167.974 17.0292 168.103 16.5767 168.446 16.3881C168.788 16.192 169.216 16.3278 169.395 16.6898C169.773 17.4289 170.123 18.1981 170.437 18.9749C170.587 19.352 170.423 19.7895 170.066 19.9478C169.987 19.9855 169.909 20.0006 169.83 20.0082C169.545 20.0233 169.266 19.8498 169.145 19.5557ZM166.19 14.0803C165.74 13.4317 165.269 12.8058 164.769 12.2024C164.513 11.8932 164.548 11.4256 164.841 11.1541C165.134 10.8826 165.576 10.9203 165.833 11.2295C166.354 11.863 166.861 12.5267 167.332 13.2055C167.56 13.5373 167.489 14.0049 167.182 14.2462C167.068 14.3292 166.939 14.382 166.811 14.3895C166.568 14.3971 166.333 14.2915 166.19 14.0803ZM162.15 9.43457C161.579 8.91419 160.979 8.40888 160.372 7.93375C160.058 7.69241 159.994 7.22482 160.223 6.89298C160.451 6.56114 160.894 6.49326 161.208 6.7346C161.85 7.23236 162.478 7.76029 163.078 8.31084C163.37 8.58234 163.399 9.04994 163.149 9.35915C163.021 9.51753 162.842 9.60049 162.664 9.61557C162.478 9.63065 162.3 9.57032 162.15 9.43457ZM157.246 5.85221C156.582 5.47512 155.89 5.12066 155.197 4.8039C154.84 4.63798 154.676 4.20056 154.833 3.83101C154.99 3.45392 155.397 3.28046 155.754 3.44638C156.482 3.77822 157.21 4.14776 157.91 4.54748C158.252 4.74357 158.381 5.18854 158.195 5.55054C158.074 5.78434 157.853 5.92763 157.617 5.94271C157.496 5.95025 157.367 5.92009 157.246 5.85221ZM131.149 5.50529C130.964 5.14328 131.099 4.69077 131.442 4.50223C132.142 4.11006 132.87 3.74051 133.605 3.40867C133.962 3.25029 134.376 3.42375 134.526 3.80084C134.676 4.17793 134.511 4.61535 134.154 4.77373C133.455 5.09049 132.77 5.43741 132.099 5.8145C132.006 5.8673 131.913 5.89746 131.813 5.89746C131.549 5.92009 131.285 5.77679 131.149 5.50529ZM151.707 3.51425C150.979 3.30308 150.229 3.12208 149.487 2.97878C149.109 2.90337 148.852 2.51873 148.923 2.11148C148.994 1.71176 149.358 1.44026 149.744 1.51568C150.529 1.66651 151.314 1.8626 152.078 2.08131C152.449 2.1869 152.671 2.6017 152.571 2.99387C152.492 3.31062 152.228 3.5218 151.935 3.53688C151.864 3.54442 151.785 3.53688 151.707 3.51425ZM136.781 2.97124C136.681 2.57907 136.903 2.16427 137.274 2.05869C138.045 1.83997 138.83 1.65143 139.615 1.50059C140.001 1.42518 140.365 1.69668 140.429 2.0964C140.5 2.49611 140.243 2.88828 139.865 2.95616C139.123 3.09945 138.373 3.27292 137.645 3.48409C137.595 3.49917 137.552 3.50671 137.502 3.50671C137.181 3.54442 136.874 3.31817 136.781 2.97124ZM145.818 2.53382C145.061 2.49611 144.298 2.49611 143.541 2.53382C143.156 2.5489 142.827 2.23215 142.806 1.82489C142.791 1.41763 143.084 1.07825 143.462 1.05563C143.47 1.05563 143.47 1.05563 143.477 1.05563C144.269 1.01792 145.076 1.01792 145.875 1.05563C146.261 1.07071 146.56 1.41763 146.546 1.83243C146.532 2.21706 146.246 2.51874 145.889 2.54136C145.868 2.53382 145.847 2.53382 145.818 2.53382Z" fill="#6448AD"/>
<path d="M127.687 8.76338C127.823 8.75584 127.966 8.70304 128.08 8.605C128.365 8.36366 128.658 8.12986 128.951 7.90361C129.265 7.66227 129.336 7.19468 129.101 6.86284C128.872 6.531 128.43 6.45559 128.116 6.70447C127.809 6.9458 127.495 7.19468 127.202 7.44356C126.895 7.69998 126.845 8.16757 127.088 8.48433C127.238 8.68042 127.466 8.77846 127.687 8.76338Z" fill="#6448AD"/>
</g>
<g opacity="0.3">
<path d="M117.445 28.6435C117.78 28.6209 118.066 28.3419 118.101 27.9723C118.137 27.5877 118.18 27.2031 118.23 26.826C118.28 26.4187 118.016 26.0416 117.63 25.9888C117.245 25.936 116.888 26.2151 116.838 26.6223C116.788 27.0221 116.738 27.4293 116.702 27.829C116.667 28.2363 116.945 28.5983 117.338 28.636C117.366 28.6435 117.409 28.6435 117.445 28.6435Z" fill="#6448AD"/>
<path d="M145.012 60.3417C144.626 60.3492 144.305 60.0174 144.298 59.6101C144.291 59.2029 144.605 58.8635 144.99 58.8559C145.733 58.8484 146.482 58.8031 147.224 58.7202C147.61 58.6825 147.952 58.9766 147.995 59.3839C148.038 59.7911 147.753 60.1531 147.367 60.1984C147.046 60.2285 146.718 60.2587 146.396 60.2813C145.932 60.3115 145.468 60.3341 145.012 60.3417ZM150.294 58.9841C150.201 58.5844 150.436 58.1847 150.815 58.0942C151.543 57.9132 152.264 57.6945 152.97 57.4532C153.342 57.325 153.734 57.5361 153.856 57.9283C153.977 58.3205 153.777 58.7353 153.406 58.8635C152.664 59.1199 151.9 59.3462 151.136 59.5422C151.093 59.5498 151.058 59.5573 151.015 59.5573C150.686 59.58 150.379 59.3462 150.294 58.9841ZM141.186 60.123C140.408 60.0249 139.629 59.8816 138.859 59.7157C138.48 59.6327 138.238 59.2406 138.316 58.8333C138.395 58.4336 138.766 58.1772 139.151 58.2601C139.879 58.4185 140.622 58.5543 141.357 58.6523C141.742 58.7051 142.014 59.0746 141.971 59.4819C141.928 59.8439 141.65 60.1079 141.321 60.1305C141.271 60.1305 141.228 60.1305 141.186 60.123ZM156.026 57.0007C155.854 56.6311 155.997 56.1861 156.347 56.0051C157.018 55.6582 157.674 55.2811 158.317 54.8814C158.652 54.6702 159.081 54.7834 159.281 55.1378C159.48 55.4923 159.373 55.9448 159.038 56.156C158.367 56.5783 157.667 56.978 156.961 57.34C156.875 57.3853 156.789 57.4079 156.697 57.4155C156.425 57.4305 156.154 57.2797 156.026 57.0007ZM135.175 58.6071C134.44 58.328 133.705 58.0113 132.991 57.6643C132.641 57.4909 132.484 57.0534 132.641 56.6839C132.806 56.3144 133.22 56.1484 133.569 56.3144C134.247 56.6386 134.947 56.9403 135.639 57.2043C136.003 57.34 136.196 57.7699 136.06 58.1546C135.961 58.4411 135.718 58.6297 135.447 58.6448C135.368 58.6599 135.268 58.6448 135.175 58.6071ZM129.629 55.7412C128.965 55.2962 128.316 54.8211 127.695 54.3233C127.388 54.0744 127.324 53.6068 127.559 53.2826C127.795 52.9583 128.237 52.8904 128.544 53.1393C129.137 53.6144 129.758 54.0669 130.386 54.4892C130.714 54.708 130.814 55.168 130.6 55.5149C130.471 55.7261 130.264 55.8468 130.05 55.8618C129.907 55.8694 129.758 55.8317 129.629 55.7412ZM124.804 51.6686C124.247 51.0803 123.712 50.4695 123.205 49.8359C122.955 49.5192 122.991 49.0516 123.283 48.7876C123.583 48.5237 124.026 48.5614 124.276 48.8706C124.754 49.4664 125.268 50.0547 125.796 50.6128C126.067 50.8993 126.074 51.3745 125.796 51.6611C125.667 51.7968 125.51 51.8647 125.346 51.8798C125.154 51.8949 124.954 51.827 124.804 51.6686ZM120.935 46.5779C120.514 45.8765 120.121 45.1525 119.757 44.4209C119.579 44.0589 119.707 43.6064 120.057 43.4179C120.4 43.2293 120.828 43.3726 121.006 43.7346C121.349 44.4285 121.727 45.1223 122.127 45.786C122.334 46.1329 122.241 46.593 121.913 46.8117C121.806 46.8796 121.699 46.9173 121.585 46.9248C121.328 46.9323 121.078 46.8117 120.935 46.5779ZM118.223 40.7104C117.958 39.9336 117.723 39.1341 117.523 38.3347C117.423 37.935 117.644 37.5353 118.023 37.4297C118.394 37.3241 118.779 37.5579 118.879 37.9576C119.072 38.7193 119.293 39.481 119.543 40.2201C119.672 40.6048 119.486 41.0347 119.115 41.1704C119.051 41.193 118.986 41.2081 118.922 41.2157C118.622 41.2157 118.33 41.0271 118.223 40.7104ZM116.788 34.3602C116.716 33.7568 116.659 33.1459 116.624 32.5351C116.609 32.3163 116.602 32.0976 116.588 31.8789C116.574 31.4717 116.866 31.1172 117.259 31.1096C117.644 31.0946 117.973 31.4113 117.987 31.8186C117.994 32.0297 118.008 32.2334 118.016 32.4445C118.051 33.0177 118.101 33.606 118.173 34.1792C118.223 34.5864 117.944 34.956 117.566 35.0088C117.552 35.0088 117.537 35.0088 117.523 35.0163C117.166 35.0314 116.838 34.7523 116.788 34.3602Z" fill="#6448AD"/>
<path d="M161.8 53.9916C161.943 53.9841 162.079 53.9313 162.193 53.8332C162.493 53.5843 162.785 53.3204 163.078 53.0489C163.37 52.7774 163.399 52.3098 163.142 52.0006C162.885 51.6914 162.443 51.6612 162.15 51.9327C161.872 52.1891 161.593 52.438 161.308 52.6718C161.008 52.9282 160.958 53.3958 161.201 53.7126C161.358 53.9162 161.579 54.0067 161.8 53.9916Z" fill="#6448AD"/>
</g>
<path d="M163.128 41.3439C163.206 41.2232 163.206 41.0648 163.128 40.9442L160.815 37.4976C161.529 35.6724 161.971 33.7191 162.093 31.6904L165.605 29.6767C165.726 29.6088 165.797 29.458 165.769 29.3147L164.984 24.3145C164.962 24.1712 164.855 24.0505 164.712 24.0279L160.772 23.3265C160.037 21.4561 159.016 19.7517 157.788 18.266L158.931 14.216C158.973 14.0727 158.923 13.9219 158.809 13.8314L154.912 10.8825C154.798 10.7996 154.648 10.7996 154.534 10.8825L151.271 13.3261C149.544 12.5719 147.695 12.1043 145.775 11.9761L143.869 8.26554C143.805 8.13733 143.662 8.06191 143.527 8.09208L138.794 8.92167C138.659 8.9443 138.544 9.05743 138.523 9.20827L137.859 13.3713C136.089 14.1481 134.476 15.2266 133.069 16.5238L129.236 15.3171C129.101 15.2719 128.958 15.3247 128.872 15.4453L126.081 19.5632C126.003 19.6838 126.003 19.8422 126.081 19.9629L128.394 23.4095C127.68 25.2346 127.238 27.1879 127.116 29.2167L123.619 31.2379C123.497 31.3057 123.426 31.4566 123.455 31.5999L124.24 36.6001C124.261 36.7434 124.368 36.8641 124.511 36.8867L128.451 37.5881C129.186 39.4584 130.207 41.1629 131.435 42.6486L130.293 46.6986C130.25 46.8419 130.3 46.9927 130.414 47.0832L134.311 50.032C134.426 50.115 134.576 50.115 134.69 50.032L137.952 47.5885C139.679 48.3427 141.528 48.8103 143.448 48.9385L145.354 52.649C145.418 52.7773 145.561 52.8527 145.697 52.8225L150.429 51.9929C150.565 51.9703 150.679 51.8572 150.7 51.7063L151.364 47.5432C153.134 46.7664 154.748 45.688 156.154 44.3908L159.987 45.5975C160.123 45.6427 160.265 45.5899 160.351 45.4692L163.128 41.3439Z" fill="#6448AD"/>
<path d="M144.212 35.5291C141.563 35.2954 139.586 32.8292 139.807 30.0312C139.915 28.6736 140.514 27.4443 141.499 26.5695C142.484 25.6871 143.726 25.2648 145.011 25.3779C147.659 25.6117 149.637 28.0778 149.415 30.8759C149.215 33.425 147.267 35.3783 144.918 35.5367C144.683 35.5518 144.447 35.5518 144.212 35.5291ZM142.22 27.4745C141.463 28.1457 141.007 29.0884 140.928 30.1292C140.757 32.2711 142.277 34.1641 144.304 34.3451C146.339 34.5261 148.123 32.9197 148.295 30.7778C148.466 28.6359 146.945 26.7429 144.918 26.5619C144.733 26.5469 144.554 26.5469 144.369 26.5544C143.583 26.6147 142.834 26.9315 142.22 27.4745Z" fill="#BDD0FB"/>
<path d="M145.262 42.89C145.661 42.8598 146.068 42.8146 146.475 42.7467C146.603 42.7241 146.732 42.7015 146.853 42.6713C147.474 42.5431 148.088 42.3545 148.681 42.1283C148.688 42.1283 148.695 42.1207 148.702 42.1207C148.723 42.1132 148.745 42.1057 148.773 42.0906C148.816 42.0755 148.859 42.0529 148.909 42.0378C149.023 41.9925 149.095 41.8719 149.088 41.7436C149.088 41.7135 149.08 41.6833 149.066 41.6531C149.009 41.5023 148.845 41.4269 148.702 41.4872C147.96 41.7964 147.182 42.0227 146.382 42.166C142.435 42.8598 138.623 41.2836 136.125 38.3498C134.74 36.7208 133.762 34.6694 133.398 32.3466C133.334 31.9393 133.291 31.532 133.263 31.1248C133.098 28.3947 133.826 25.7098 135.354 23.4548C137.11 20.8604 139.715 19.1484 142.685 18.628C148.831 17.5495 154.648 21.954 155.669 28.4475C155.733 28.8472 155.776 29.2469 155.797 29.6541C155.904 31.3963 155.647 33.146 155.041 34.7675C155.026 34.8127 155.019 34.8504 155.019 34.8957C155.026 35.0088 155.091 35.1069 155.198 35.1521C155.34 35.2125 155.505 35.137 155.562 34.9862C156.197 33.2817 156.468 31.4415 156.361 29.6164C156.333 29.1941 156.29 28.7718 156.226 28.3494C155.155 21.5392 149.038 16.916 142.592 18.0473C139.465 18.5979 136.732 20.3928 134.89 23.1154C133.284 25.4835 132.527 28.3042 132.699 31.17C132.727 31.5924 132.77 32.0223 132.834 32.4521C133.355 35.7555 135.054 38.644 137.631 40.5898C139.879 42.264 142.549 43.071 145.262 42.89Z" fill="#BDD0FB"/>
<g opacity="0.3">
<path d="M197.141 50.5674C197.326 50.5523 197.491 50.4166 197.533 50.2129C197.612 49.8358 197.683 49.4437 197.748 49.059C197.783 48.8102 197.626 48.5764 197.391 48.5311C197.155 48.4859 196.934 48.6593 196.891 48.9082C196.834 49.2778 196.77 49.6473 196.691 50.0093C196.641 50.2582 196.784 50.4995 197.019 50.5599C197.062 50.5674 197.105 50.5674 197.141 50.5674Z" fill="#6448AD"/>
<path d="M197.533 47.0681C197.29 47.0605 197.105 46.8418 197.119 46.5929C197.14 45.9519 197.133 45.3033 197.097 44.6698C197.09 44.534 197.083 44.3982 197.069 44.2625C197.047 44.0136 197.226 43.7874 197.461 43.7647C197.69 43.7572 197.911 43.9307 197.933 44.1871C197.947 44.3304 197.954 44.4661 197.961 44.6094C198.004 45.2806 198.011 45.9594 197.982 46.6231C197.975 46.8569 197.797 47.0454 197.576 47.0605C197.561 47.0681 197.547 47.0681 197.533 47.0681ZM196.74 41.9623C196.591 41.2005 196.391 40.4464 196.155 39.7148C196.077 39.4735 196.198 39.217 196.426 39.1341C196.655 39.0511 196.898 39.1793 196.976 39.4207C197.226 40.1899 197.433 40.9818 197.59 41.7737C197.64 42.0226 197.49 42.2639 197.254 42.3167C197.233 42.3243 197.212 42.3243 197.19 42.3243C196.983 42.3393 196.79 42.1885 196.74 41.9623ZM195.32 37.5654C194.999 36.8715 194.635 36.1852 194.235 35.5366C194.107 35.3255 194.164 35.0389 194.364 34.9031C194.563 34.7674 194.835 34.8277 194.963 35.0389C195.384 35.7176 195.77 36.4341 196.105 37.1657C196.212 37.3919 196.119 37.671 195.905 37.7766C195.855 37.8067 195.798 37.8218 195.741 37.8218C195.563 37.8293 195.399 37.7313 195.32 37.5654ZM192.914 33.6663C192.443 33.078 191.929 32.5048 191.394 31.9844C191.216 31.811 191.208 31.5244 191.373 31.3359C191.537 31.1473 191.808 31.1398 191.987 31.3132C192.55 31.8638 193.086 32.4596 193.585 33.078C193.742 33.2741 193.714 33.5607 193.535 33.7266C193.464 33.7945 193.371 33.8246 193.286 33.8322C193.143 33.8397 193.007 33.7869 192.914 33.6663ZM189.681 30.5138C189.088 30.0613 188.46 29.6465 187.818 29.2694C187.611 29.1487 187.532 28.8697 187.647 28.6434C187.761 28.4247 188.025 28.3418 188.239 28.4624C188.91 28.8546 189.567 29.292 190.195 29.7596C190.388 29.9105 190.43 30.197 190.295 30.4007C190.216 30.5138 190.095 30.5817 189.966 30.5892C189.867 30.6043 189.767 30.5741 189.681 30.5138ZM185.826 28.2814C185.148 27.9948 184.442 27.7535 183.735 27.5574C183.507 27.4971 183.364 27.2407 183.421 26.9993C183.478 26.758 183.721 26.6071 183.949 26.6675C184.691 26.8711 185.427 27.1275 186.148 27.4292C186.369 27.5197 186.476 27.7912 186.39 28.025C186.326 28.1985 186.176 28.304 186.012 28.3116C185.955 28.3191 185.891 28.304 185.826 28.2814ZM181.572 27.1124C180.851 27.0144 180.109 26.9616 179.374 26.9541C179.131 26.9541 178.938 26.7429 178.945 26.494C178.945 26.2376 179.145 26.0415 179.381 26.0415C180.152 26.049 180.93 26.1018 181.686 26.2074C181.922 26.2376 182.093 26.4714 182.058 26.7203C182.029 26.939 181.858 27.1049 181.658 27.12C181.629 27.12 181.601 27.12 181.572 27.1124ZM174.477 27.1577C174.42 26.9088 174.563 26.6599 174.798 26.6071C175.441 26.4412 176.104 26.313 176.768 26.215C176.868 26.1999 176.968 26.1848 177.068 26.1773C177.304 26.1396 177.525 26.3281 177.546 26.577C177.575 26.8259 177.404 27.0597 177.168 27.0823C177.075 27.0898 176.982 27.1049 176.882 27.12C176.247 27.2105 175.612 27.3312 174.998 27.4895C174.969 27.4971 174.948 27.4971 174.919 27.5046C174.72 27.5197 174.527 27.3764 174.477 27.1577Z" fill="#6448AD"/>
</g>
<g opacity="0.3">
<path d="M180.173 65.6284C179.417 65.6661 178.653 65.6586 177.903 65.6058C177.668 65.5907 177.482 65.372 177.504 65.1156C177.518 64.8592 177.732 64.6782 177.968 64.6932C178.681 64.746 179.417 64.7536 180.138 64.7159C180.38 64.7008 180.58 64.8969 180.594 65.1533C180.594 65.4022 180.416 65.6134 180.173 65.6284ZM181.929 64.9949C181.886 64.746 182.051 64.5047 182.286 64.467C183 64.3388 183.707 64.1653 184.399 63.9466C184.627 63.8787 184.87 64.0145 184.942 64.2558C185.013 64.4972 184.877 64.7536 184.649 64.829C183.928 65.0553 183.178 65.2438 182.436 65.3796C182.422 65.3796 182.408 65.3871 182.386 65.3871C182.165 65.3871 181.972 65.2287 181.929 64.9949ZM175.648 65.2891C174.905 65.1382 174.163 64.9346 173.449 64.6857C173.221 64.6103 173.1 64.3463 173.171 64.105C173.242 63.8637 173.492 63.7354 173.721 63.8109C174.406 64.0447 175.112 64.2407 175.819 64.384C176.055 64.4293 176.205 64.6706 176.162 64.9195C176.126 65.1307 175.955 65.274 175.762 65.2891C175.719 65.3041 175.683 65.2966 175.648 65.2891ZM186.212 63.7581C186.119 63.5243 186.219 63.2528 186.433 63.1547C187.097 62.8455 187.74 62.4986 188.361 62.1064C188.568 61.9782 188.832 62.0461 188.953 62.2648C189.074 62.4835 189.01 62.7625 188.803 62.8908C188.154 63.298 187.476 63.6676 186.783 63.9919C186.733 64.0145 186.683 64.0296 186.633 64.0296C186.455 64.0371 186.283 63.9391 186.212 63.7581ZM171.336 63.8033C170.651 63.4639 169.98 63.0793 169.338 62.657C169.138 62.5212 169.074 62.2422 169.202 62.0234C169.331 61.8047 169.595 61.7444 169.802 61.8802C170.416 62.2799 171.051 62.6494 171.708 62.9737C171.922 63.0793 172.022 63.3508 171.915 63.5846C171.843 63.743 171.7 63.841 171.551 63.8486C171.472 63.8561 171.401 63.841 171.336 63.8033ZM167.482 61.2693C166.889 60.764 166.326 60.221 165.804 59.6553C165.64 59.4743 165.64 59.1802 165.812 59.0067C165.983 58.8333 166.261 58.8333 166.425 59.0143C166.925 59.5573 167.468 60.0777 168.032 60.5528C168.217 60.7112 168.246 60.9978 168.096 61.2014C168.017 61.307 167.903 61.3598 167.782 61.3749C167.682 61.3824 167.575 61.3447 167.482 61.2693ZM164.32 57.8377C163.863 57.2042 163.435 56.533 163.056 55.8392C162.935 55.6205 163.006 55.3414 163.213 55.2132C163.42 55.085 163.684 55.1604 163.806 55.3791C164.17 56.0353 164.577 56.6763 165.012 57.2797C165.155 57.4833 165.119 57.7699 164.926 57.9207C164.855 57.9811 164.777 58.0112 164.691 58.0112C164.555 58.0263 164.413 57.9584 164.32 57.8377Z" fill="#6448AD"/>
<path d="M190.467 61.6239C190.552 61.6164 190.631 61.5862 190.702 61.5259C190.995 61.2845 191.287 61.0357 191.559 60.7792C191.737 60.6133 191.759 60.3192 191.602 60.1306C191.445 59.9421 191.173 59.9195 190.988 60.0854C190.724 60.3267 190.452 60.5681 190.167 60.7943C189.974 60.9527 189.946 61.2393 190.088 61.4354C190.188 61.5711 190.324 61.6315 190.467 61.6239Z" fill="#6448AD"/>
</g>
<path d="M191.616 52.9809C191.673 52.898 191.673 52.7924 191.616 52.7094L190.067 50.4016C190.545 49.1798 190.838 47.8751 190.923 46.5176L193.272 45.1751C193.357 45.1299 193.4 45.0318 193.386 44.9338L192.858 41.5928C192.843 41.4947 192.772 41.4193 192.679 41.4042L190.045 40.9291C189.553 39.6772 188.875 38.5384 188.047 37.5428L188.81 34.8353C188.839 34.7373 188.803 34.6392 188.725 34.5789L186.112 32.603C186.034 32.5426 185.934 32.5426 185.855 32.603L183.671 34.2395C182.515 33.7342 181.28 33.425 179.995 33.3345L178.724 30.8533C178.681 30.7628 178.589 30.7175 178.496 30.7326L175.334 31.2907C175.241 31.3058 175.17 31.3812 175.155 31.4792L174.706 34.2622C173.521 34.7825 172.443 35.499 171.501 36.3739L168.938 35.5669C168.845 35.5367 168.752 35.5744 168.695 35.6574L166.825 38.4177C166.768 38.5007 166.768 38.6062 166.825 38.6892L168.374 40.997C167.896 42.2188 167.603 43.5235 167.518 44.881L165.169 46.2235C165.084 46.2687 165.041 46.3668 165.055 46.4648L165.583 49.8058C165.597 49.9039 165.669 49.9793 165.762 49.9944L168.396 50.4695C168.888 51.7214 169.566 52.8602 170.394 53.8558L169.63 56.5633C169.602 56.6613 169.638 56.7593 169.716 56.8197L172.329 58.7956C172.407 58.856 172.507 58.856 172.586 58.7956L174.77 57.1591C175.926 57.6644 177.161 57.9736 178.446 58.0641L179.716 60.5453C179.759 60.6358 179.852 60.6811 179.945 60.666L183.107 60.1079C183.2 60.0928 183.271 60.0174 183.285 59.9194L183.735 57.1364C184.92 56.6161 185.998 55.8996 186.94 55.0247L189.503 55.8317C189.596 55.8619 189.688 55.8242 189.745 55.7412L191.616 52.9809Z" fill="#6448AD"/>
<path d="M178.953 49.1572C178.082 49.0818 177.282 48.6519 176.718 47.943C176.154 47.234 175.883 46.3365 175.955 45.4164C176.104 43.5084 177.689 42.0905 179.502 42.2489C181.308 42.4073 182.65 44.0891 182.5 45.9896C182.429 46.9097 182.022 47.7544 181.351 48.3502C180.808 48.8404 180.145 49.1195 179.445 49.1647C179.281 49.1723 179.117 49.1647 178.953 49.1572ZM176.818 45.4843C176.768 46.1631 176.968 46.8268 177.382 47.3471C177.796 47.8675 178.382 48.1843 179.024 48.2446C179.666 48.2974 180.294 48.0862 180.787 47.6488C181.28 47.2114 181.579 46.593 181.636 45.9142C181.744 44.5114 180.758 43.2746 179.431 43.1614C179.309 43.1539 179.195 43.1464 179.074 43.1614C177.896 43.2293 176.918 44.2098 176.818 45.4843Z" fill="#BDD0FB"/>
<path d="M179.687 54.2705C179.959 54.2554 180.237 54.2177 180.515 54.1725C181.065 54.0744 181.608 53.9236 182.122 53.7124C182.143 53.7049 182.171 53.6898 182.193 53.6822C182.371 53.6068 182.478 53.4183 182.464 53.2297C182.464 53.1845 182.45 53.1392 182.436 53.0864C182.35 52.8526 182.093 52.7395 181.872 52.83C181.386 53.0337 180.887 53.1769 180.373 53.2674C180.344 53.275 180.316 53.275 180.287 53.2825C179.074 53.4862 177.853 53.358 176.725 52.9281C176.111 52.6943 175.526 52.3775 174.976 51.9703C174.969 51.9703 174.969 51.9627 174.962 51.9627C174.948 51.9552 174.934 51.9401 174.919 51.9326C173.335 50.7334 172.278 48.9535 171.964 46.9173C171.921 46.6533 171.893 46.3893 171.878 46.1254C171.771 44.3606 172.242 42.6184 173.228 41.1553C174.362 39.481 176.047 38.3648 177.974 38.033C179.902 37.6936 181.836 38.1688 183.421 39.3679C185.005 40.5671 186.062 42.3469 186.376 44.3832C186.419 44.6396 186.447 44.9036 186.461 45.16C186.526 46.2913 186.362 47.4226 185.969 48.4709C185.948 48.5387 185.933 48.5991 185.94 48.6669C185.948 48.8404 186.055 48.9988 186.212 49.0667C186.433 49.1572 186.69 49.044 186.776 48.8102C187.218 47.6337 187.404 46.3667 187.325 45.1072C187.311 44.8131 187.275 44.5265 187.232 44.2324C186.875 41.9548 185.698 39.9637 183.92 38.6213C182.143 37.2788 179.98 36.7434 177.824 37.128C175.669 37.5051 173.784 38.7495 172.514 40.6274C171.407 42.264 170.879 44.2097 171 46.1857C171.015 46.4798 171.05 46.774 171.093 47.0681C171.8 51.4725 175.555 54.5496 179.687 54.2705Z" fill="#BDD0FB"/>
<defs>
<linearGradient id="paint0_linear_18_194" x1="221.69" y1="269.448" x2="35.2699" y2="50.3216" gradientUnits="userSpaceOnUse">
<stop stop-color="#DAE3FE"/>
<stop offset="1" stop-color="#E9EFFD"/>
</linearGradient>
<linearGradient id="paint1_linear_18_194" x1="162.256" y1="-94.0453" x2="114.278" y2="170.845" gradientUnits="userSpaceOnUse">
<stop stop-color="#A28EE4"/>
<stop offset="1" stop-color="#A28EE4"/>
</linearGradient>
<linearGradient id="paint2_linear_18_194" x1="33.5071" y1="205.028" x2="41.9729" y2="205.028" gradientUnits="userSpaceOnUse">
<stop stop-color="#09005D"/>
<stop offset="1" stop-color="#1A0F91"/>
</linearGradient>
<linearGradient id="paint3_linear_18_194" x1="35.8612" y1="194.845" x2="34.0587" y2="209.734" gradientUnits="userSpaceOnUse">
<stop stop-color="#FEBBBA"/>
<stop offset="1" stop-color="#FF928E"/>
</linearGradient>
<linearGradient id="paint4_linear_18_194" x1="46.398" y1="205.255" x2="58.5844" y2="205.255" gradientUnits="userSpaceOnUse">
<stop stop-color="#09005D"/>
<stop offset="1" stop-color="#1A0F91"/>
</linearGradient>
<linearGradient id="paint5_linear_18_194" x1="48.8135" y1="196.42" x2="48.0031" y2="211.405" gradientUnits="userSpaceOnUse">
<stop stop-color="#FEBBBA"/>
<stop offset="1" stop-color="#FF928E"/>
</linearGradient>
<linearGradient id="paint6_linear_18_194" x1="46.58" y1="208.912" x2="27.9856" y2="124.995" gradientUnits="userSpaceOnUse">
<stop stop-color="#09005D"/>
<stop offset="1" stop-color="#1A0F91"/>
</linearGradient>
<linearGradient id="paint7_linear_18_194" x1="63.675" y1="93.6888" x2="24.4465" y2="134.65" gradientUnits="userSpaceOnUse">
<stop stop-color="#4042E2"/>
<stop offset="1" stop-color="#4F52FF"/>
</linearGradient>
<linearGradient id="paint8_linear_18_194" x1="56.4844" y1="96.0827" x2="-2.13822" y2="197.921" gradientUnits="userSpaceOnUse">
<stop stop-color="#A28EE4"/>
<stop offset="1" stop-color="#4F52FF"/>
</linearGradient>
<linearGradient id="paint9_linear_18_194" x1="42.3127" y1="107.935" x2="46.4485" y2="97.2459" gradientUnits="userSpaceOnUse">
<stop stop-color="#FEBBBA"/>
<stop offset="1" stop-color="#FF928E"/>
</linearGradient>
<linearGradient id="paint10_linear_18_194" x1="45.5623" y1="73.007" x2="43.6182" y2="87.0579" gradientUnits="userSpaceOnUse">
<stop stop-color="#4042E2"/>
<stop offset="1" stop-color="#4F52FF"/>
</linearGradient>
<linearGradient id="paint11_linear_18_194" x1="48.6145" y1="73.4293" x2="46.6704" y2="87.4801" gradientUnits="userSpaceOnUse">
<stop stop-color="#4042E2"/>
<stop offset="1" stop-color="#4F52FF"/>
</linearGradient>
<linearGradient id="paint12_linear_18_194" x1="51.5431" y1="91.6801" x2="28.2222" y2="109.26" gradientUnits="userSpaceOnUse">
<stop stop-color="#FEBBBA"/>
<stop offset="1" stop-color="#FF928E"/>
</linearGradient>
<linearGradient id="paint13_linear_18_194" x1="42.9047" y1="85.4854" x2="53.8743" y2="98.8527" gradientUnits="userSpaceOnUse">
<stop stop-color="#09005D"/>
<stop offset="1" stop-color="#1A0F91"/>
</linearGradient>
<linearGradient id="paint14_linear_18_194" x1="49.2907" y1="90.6482" x2="37.8372" y2="98.9427" gradientUnits="userSpaceOnUse">
<stop stop-color="#FEBBBA"/>
<stop offset="1" stop-color="#FF928E"/>
</linearGradient>
<linearGradient id="paint15_linear_18_194" x1="75.356" y1="96.5306" x2="50.9522" y2="116.482" gradientUnits="userSpaceOnUse">
<stop stop-color="#FEBBBA"/>
<stop offset="1" stop-color="#FF928E"/>
</linearGradient>
<linearGradient id="paint16_linear_18_194" x1="75.8419" y1="98.5142" x2="52.0869" y2="117.935" gradientUnits="userSpaceOnUse">
<stop stop-color="#FEBBBA"/>
<stop offset="1" stop-color="#FF928E"/>
</linearGradient>
<linearGradient id="paint17_linear_18_194" x1="76.2194" y1="97.5863" x2="51.8156" y2="117.538" gradientUnits="userSpaceOnUse">
<stop stop-color="#FEBBBA"/>
<stop offset="1" stop-color="#FF928E"/>
</linearGradient>
<linearGradient id="paint18_linear_18_194" x1="53.2076" y1="95.4846" x2="145.729" y2="102.032" gradientUnits="userSpaceOnUse">
<stop stop-color="#FF9085"/>
<stop offset="1" stop-color="#FB6FBB"/>
</linearGradient>
<linearGradient id="paint19_linear_18_194" x1="61.4474" y1="115.046" x2="49.1237" y2="173.23" gradientUnits="userSpaceOnUse">
<stop stop-color="#FEBBBA"/>
<stop offset="1" stop-color="#FF928E"/>
</linearGradient>
</defs>
</svg>
