<svg width="316" height="119" viewBox="0 0 316 119" fill="none" xmlns="http://www.w3.org/2000/svg">
<path d="M114.838 71.3476C114.837 71.8454 114.645 72.3237 114.301 72.6835C113.957 73.0433 113.488 73.2571 112.99 73.2806C112.493 73.3041 112.006 73.1356 111.629 72.8099C111.253 72.4842 111.016 72.0262 110.968 71.5307C110.92 71.0353 111.064 70.5403 111.371 70.1482C111.677 69.756 112.123 69.4968 112.615 69.4241C113.108 69.3514 113.609 69.4708 114.016 69.7577C114.423 70.0445 114.704 70.4767 114.801 70.9649C114.826 71.091 114.839 71.2191 114.838 71.3476Z" fill="#3F3D56"/>
<path opacity="0.2" d="M129.237 110.658H129.776V86.106H142.355V85.5682H129.776V75.2083H139.49C139.348 75.0272 139.202 74.8484 139.051 74.6719H129.776V67.8294C129.598 67.7533 129.418 67.68 129.237 67.6109V74.6719H118.667V65.9048C118.486 65.9131 118.308 65.9255 118.128 65.9407V74.6719H109.695V68.1308C109.514 68.211 109.336 68.2953 109.159 68.3838V74.6719H102.07V75.2083H109.159V85.5682H102.07V86.106H109.159V110.658H109.695V86.106C110.803 86.1058 111.899 86.3238 112.923 86.7475C113.946 87.1711 114.875 87.7923 115.659 88.5753C116.442 89.3584 117.063 90.2881 117.486 91.3113C117.91 92.3345 118.128 93.4311 118.128 94.5385V110.658H118.667V86.106H129.237V110.658ZM109.695 85.5682V75.2083H118.128V85.5682H109.695ZM118.667 85.5682V75.2083H118.879C120.239 75.2084 121.586 75.4765 122.843 75.9971C124.1 76.5178 125.242 77.2809 126.203 78.2429C127.165 79.2049 127.928 80.347 128.449 81.6039C128.969 82.8607 129.237 84.2078 129.237 85.5682H118.667Z" fill="black"/>
<path d="M125.944 103.297C125.265 106.325 123.639 109.058 121.302 111.099C121.131 111.248 120.959 111.391 120.781 111.532C120.348 111.572 119.918 111.612 119.491 111.653C119.137 111.685 118.788 111.72 118.44 111.752L118.378 111.759L118.334 111.38L118.158 109.842C117.475 108.728 117.052 107.474 116.92 106.174C116.787 104.874 116.949 103.56 117.394 102.331C118.005 100.683 119.112 99.2263 120.2 97.7816C121.703 95.7857 123.164 93.8131 123.217 91.3796C123.956 92.3258 124.571 93.3631 125.046 94.466C124.598 94.677 124.195 94.9735 123.86 95.3389C123.765 95.443 123.671 95.5889 123.735 95.714C123.791 95.8205 123.93 95.8459 124.05 95.8598C124.34 95.8899 124.631 95.92 124.921 95.9501C125.152 95.9756 125.384 95.9987 125.615 96.0242C125.896 96.9436 126.086 97.8881 126.183 98.8443C126.339 100.332 126.258 101.834 125.944 103.297Z" fill="#3F3D56"/>
<path d="M133.63 97.2282C132.264 98.2215 131.465 99.6501 130.845 101.225C130.209 101.428 129.637 101.793 129.185 102.285C129.09 102.389 128.995 102.535 129.06 102.66C129.115 102.767 129.254 102.792 129.375 102.806C129.664 102.836 129.956 102.866 130.245 102.896C129.625 104.758 129.055 106.684 127.958 108.256C127.228 109.294 126.276 110.157 125.172 110.782C124.871 110.954 124.56 111.108 124.241 111.243C123.065 111.333 121.911 111.43 120.78 111.532C120.347 111.572 119.917 111.612 119.49 111.653C119.136 111.685 118.787 111.72 118.439 111.752C118.437 111.625 118.437 111.498 118.439 111.37C118.512 107.978 119.76 104.716 121.97 102.141C122.074 102.021 122.181 101.903 122.29 101.785C123.409 100.589 124.726 99.5945 126.182 98.8443C128.476 97.6514 131.048 97.0934 133.63 97.2282Z" fill="#6C63FF"/>
<path d="M119.891 110.465L119.625 111.252L119.491 111.653C119.137 111.685 118.787 111.72 118.44 111.752L118.377 111.759C117.993 111.799 117.611 111.838 117.229 111.877C117.129 111.762 117.03 111.644 116.932 111.523C114.516 108.597 113.356 104.832 113.706 101.053C114.056 97.274 115.888 93.787 118.801 91.3542C118.495 92.9542 118.852 94.4869 119.438 96.0081C119.375 96.0336 119.315 96.059 119.257 96.0868C118.809 96.2978 118.406 96.5943 118.072 96.9597C117.977 97.0639 117.882 97.2097 117.947 97.3348C118.002 97.4413 118.141 97.4667 118.261 97.4806C118.551 97.5107 118.843 97.5408 119.132 97.5709C119.364 97.5964 119.595 97.6195 119.827 97.645C119.935 97.6566 120.044 97.6682 120.153 97.6798C120.169 97.7145 120.183 97.7469 120.199 97.7816C120.859 99.2125 121.57 100.65 121.971 102.141C122.071 102.516 122.15 102.895 122.207 103.278C122.385 104.573 122.27 105.892 121.869 107.136C121.468 108.38 120.792 109.518 119.891 110.465Z" fill="#6C63FF"/>
<path d="M143.197 76.8834C141.204 72.9954 138.116 69.7241 134.484 67.3202C130.841 64.9196 126.66 63.4576 122.314 63.0646C121.745 63.0128 121.173 62.9825 120.601 62.9737C119.925 62.9635 109.75 65.8983 106.342 68.2948C102.935 70.6621 100.133 73.797 98.1607 77.4467C96.1922 81.1163 95.224 85.2393 95.3532 89.4016C95.522 93.5889 96.6891 97.6752 98.7574 101.32C100.797 104.953 103.694 108.033 107.195 110.291C110.747 112.557 114.314 118.565 118.507 118.777C122.731 118.991 127.549 113.323 131.402 111.602C135.255 109.867 138.586 107.153 141.063 103.729C143.47 100.374 145.027 96.4852 145.601 92.3961C146.197 88.2092 145.919 83.8912 144.489 79.8895C144.123 78.8612 143.691 77.8572 143.197 76.8834C142.785 76.0718 141.578 75.773 140.822 76.2604C140.432 76.5003 140.15 76.881 140.034 77.3235C139.918 77.766 139.977 78.2362 140.199 78.6363C140.441 79.1129 140.666 79.5974 140.874 80.0898L140.698 79.6749C141.486 81.5678 142.021 83.5557 142.291 85.5879L142.229 85.1263C142.515 87.331 142.51 89.5639 142.213 91.7673L142.275 91.3056C141.975 93.5088 141.387 95.6631 140.526 97.7132L140.701 97.2983C140.258 98.3443 139.742 99.3578 139.157 100.331C138.86 100.823 138.545 101.303 138.212 101.772C138.065 101.977 137.915 102.179 137.763 102.381C137.565 102.644 138.033 102.037 137.828 102.295C137.793 102.339 137.759 102.383 137.724 102.427C137.618 102.559 137.512 102.689 137.404 102.818C136.682 103.679 135.894 104.483 135.047 105.222C134.836 105.406 134.622 105.586 134.404 105.762C134.296 105.849 134.188 105.941 134.075 106.022C134.08 106.019 134.441 105.744 134.227 105.904C134.16 105.954 134.093 106.005 134.026 106.055C133.577 106.387 133.115 106.703 132.642 107.002C131.553 107.688 130.411 108.285 129.226 108.788L129.641 108.613C127.597 109.473 125.449 110.061 123.251 110.361L123.713 110.299C121.517 110.596 119.291 110.6 117.094 110.311L117.555 110.373C115.558 110.105 113.605 109.577 111.745 108.802L112.16 108.977C111.082 108.522 110.043 107.981 109.053 107.359C108.563 107.05 108.086 106.722 107.622 106.375C107.555 106.326 107.49 106.276 107.424 106.226C107.212 106.066 107.576 106.344 107.579 106.346C107.456 106.257 107.337 106.163 107.223 106.062C106.999 105.879 106.778 105.693 106.561 105.501C105.691 104.736 104.879 103.907 104.131 103.022C103.944 102.8 103.761 102.576 103.582 102.348C103.504 102.249 103.362 102.049 103.675 102.47C103.634 102.415 103.591 102.361 103.55 102.305C103.45 102.173 103.352 102.04 103.254 101.905C102.914 101.435 102.591 100.953 102.285 100.459C101.592 99.3419 100.988 98.1724 100.478 96.9612L100.653 97.376C99.8171 95.3879 99.2457 93.2989 98.9531 91.1623L99.0151 91.6239C98.7512 89.6545 98.7474 87.6588 99.0039 85.6884L98.9419 86.15C99.2049 84.2418 99.7183 82.3766 100.469 80.6026L100.294 81.0174C100.766 79.9069 101.323 78.8343 101.96 77.8092C102.278 77.2963 102.616 76.7958 102.973 76.3078C103.054 76.1969 103.136 76.0867 103.219 75.9772C103.294 75.8781 103.501 75.6315 103.149 76.0672C103.183 76.0244 103.216 75.9805 103.25 75.9374C103.446 75.6893 103.647 75.445 103.852 75.2046C104.63 74.2945 105.472 73.4417 106.372 72.6529C106.6 72.4535 106.831 72.2583 107.065 72.0674C107.172 71.9806 107.279 71.8947 107.387 71.8097C107.431 71.7757 107.474 71.7424 107.517 71.7081C107.055 72.0762 107.389 71.8083 107.494 71.7296C107.978 71.3672 108.474 71.0228 108.984 70.6967C110.117 69.9722 111.308 69.3443 112.546 68.8194L112.132 68.9945C113.928 68.2401 121.889 66.4594 123.337 66.6537L122.875 66.5917C125.003 66.8888 127.083 67.4634 129.061 68.301L128.647 68.1259C129.649 68.5517 130.624 69.0412 131.564 69.5914C132.034 69.8667 132.494 70.1571 132.946 70.4625C133.159 70.6071 133.371 70.7549 133.58 70.9059C133.684 70.9814 133.788 71.0577 133.891 71.1348C133.949 71.1777 134.006 71.2211 134.063 71.264C134.304 71.4444 133.732 71.0028 133.984 71.2023C134.828 71.8656 135.63 72.5811 136.384 73.3448C136.755 73.7222 137.113 74.1115 137.458 74.5129C137.635 74.7188 137.808 74.9278 137.978 75.1398C138.062 75.2451 138.35 75.6262 137.998 75.1594C138.084 75.2735 138.171 75.3868 138.256 75.5018C138.987 76.4921 139.637 77.5404 140.199 78.6363C140.614 79.4461 141.816 79.7481 142.574 79.2593C142.964 79.0195 143.246 78.6388 143.362 78.1962C143.478 77.7537 143.419 77.2835 143.197 76.8834Z" fill="#3F3D56"/>
<path d="M122.964 105.222C122.784 105.23 122.607 105.183 122.455 105.087C122.304 104.991 122.185 104.851 122.116 104.685C122.047 104.52 122.03 104.337 122.068 104.162C122.106 103.986 122.198 103.827 122.329 103.705C122.351 103.617 122.367 103.554 122.389 103.467C122.381 103.448 122.373 103.429 122.365 103.41C121.56 101.488 116.418 106.844 116.196 108.65C116.098 109.448 116.14 110.257 116.318 111.041C114.653 107.408 113.788 103.46 113.783 99.4634C113.782 98.4606 113.838 97.4585 113.949 96.4619C114.042 95.6449 114.169 94.8337 114.333 94.0284C115.226 89.6585 117.142 85.5627 119.925 82.0774C121.516 82.1662 122.911 81.9238 123.046 78.8393C123.07 78.2906 123.477 77.8156 123.567 77.275C123.415 77.295 123.26 77.3074 123.108 77.3174C123.061 77.3199 123.011 77.3224 122.964 77.3249L122.946 77.3257C122.779 77.3331 122.613 77.2922 122.469 77.2078C122.325 77.1233 122.208 76.999 122.133 76.8498C122.058 76.7005 122.027 76.5327 122.045 76.3665C122.063 76.2003 122.128 76.0428 122.234 75.913C122.299 75.8323 122.365 75.7516 122.431 75.671C122.53 75.5464 122.633 75.4243 122.732 75.2998C122.744 75.288 122.754 75.2755 122.765 75.2624C122.879 75.1205 122.994 74.981 123.108 74.839C122.899 74.5144 122.618 74.2425 122.286 74.0444C121.138 73.3719 119.554 73.8377 118.724 74.8764C117.892 75.915 117.736 77.3722 118.024 78.6699C118.309 79.7741 118.779 80.822 119.414 81.7685C119.352 81.8482 119.287 81.9254 119.225 82.0051C118.087 83.4689 117.095 85.0406 116.263 86.6979C116.498 84.8598 113.621 78.2219 112.508 76.8159C111.171 75.127 108.43 75.8641 108.195 78.005C108.193 78.0257 108.19 78.0464 108.188 78.0671C108.353 78.1604 108.515 78.2593 108.674 78.364C108.872 78.4969 109.027 78.6868 109.116 78.9087C109.205 79.1307 109.225 79.3743 109.173 79.6079C109.121 79.8414 109 80.0538 108.826 80.2173C108.651 80.3809 108.431 80.4879 108.195 80.5243L108.171 80.5281C105.958 83.687 113.051 91.9091 114.826 90.063C113.991 92.431 113.466 94.8977 113.267 97.4009C113.154 98.8778 113.161 100.361 113.287 101.837L113.279 101.785C112.885 98.5706 106.118 93.7916 104.142 94.1897C103.003 94.419 101.882 94.3669 102.055 95.5152C102.058 95.5335 102.06 95.5519 102.063 95.5702C102.37 95.6951 102.669 95.839 102.957 96.0011C103.123 96.0944 103.285 96.1933 103.443 96.298C103.642 96.4309 103.796 96.6207 103.885 96.8427C103.974 97.0646 103.994 97.3083 103.942 97.5418C103.891 97.7754 103.77 97.9878 103.595 98.1513C103.42 98.3149 103.201 98.4219 102.964 98.4583L102.94 98.462C102.923 98.4645 102.908 98.467 102.89 98.4695C101.883 101.935 109.352 107.527 113.892 105.748H113.895C114.345 107.703 114.997 109.606 115.84 111.427H122.789C122.814 111.35 122.837 111.27 122.859 111.193C122.216 111.233 121.57 111.195 120.936 111.078C121.452 110.445 121.967 109.808 122.483 109.175C122.495 109.163 122.505 109.151 122.515 109.138C122.777 108.814 123.041 108.493 123.303 108.169L123.303 108.168C123.317 107.176 123.203 106.186 122.964 105.222L122.964 105.222ZM115.006 89.5673L115.009 89.5623L115.006 89.5723V89.5673ZM113.466 103.444L113.406 103.309C113.409 103.212 113.409 103.115 113.406 103.015C113.406 102.988 113.401 102.96 113.401 102.933C113.424 103.105 113.444 103.277 113.469 103.449L113.466 103.444Z" fill="#3F3D56"/>
<path d="M134.945 69.9233C136.352 69.9233 137.492 68.7831 137.492 67.3765C137.492 65.9699 136.352 64.8296 134.945 64.8296C133.539 64.8296 132.398 65.9699 132.398 67.3765C132.398 68.7831 133.539 69.9233 134.945 69.9233Z" fill="#3F3D56"/>
<path d="M121.516 68.5341C123.562 68.5341 125.221 66.8755 125.221 64.8295C125.221 62.7836 123.562 61.125 121.516 61.125C119.47 61.125 117.812 62.7836 117.812 64.8295C117.812 66.8755 119.47 68.5341 121.516 68.5341Z" fill="#3F3D56"/>
<path d="M139.033 70.6648C138.324 70.6648 137.75 70.0905 137.75 69.3821C137.75 68.6736 138.324 68.0994 139.033 68.0994C139.741 68.0994 140.315 68.6736 140.315 69.3821C140.315 70.0905 139.741 70.6648 139.033 70.6648Z" fill="white"/>
<path d="M134.164 70.6648C133.455 70.6648 132.881 70.0905 132.881 69.3821C132.881 68.6736 133.455 68.0994 134.164 68.0994C134.872 68.0994 135.446 68.6736 135.446 69.3821C135.446 70.0905 134.872 70.6648 134.164 70.6648Z" fill="white"/>
<path d="M129.295 70.6648C128.587 70.6648 128.013 70.0905 128.013 69.3821C128.013 68.6736 128.587 68.0994 129.295 68.0994C130.004 68.0994 130.578 68.6736 130.578 69.3821C130.578 70.0905 130.004 70.6648 129.295 70.6648Z" fill="white"/>
<path d="M128.333 21.8699C123.311 21.8699 119.24 17.7988 119.24 12.7769C119.24 7.75493 123.311 3.68384 128.333 3.68384C133.355 3.68384 137.426 7.75493 137.426 12.7769C137.426 17.7988 133.355 21.8699 128.333 21.8699Z" fill="#2F2E41"/>
<path d="M150.962 90.5784H154.945L156.839 75.2217H150.963L150.962 90.5784Z" fill="#FEB8B8"/>
<path d="M157.787 89.4404H150.109V94.2751H162.622C162.622 92.9929 162.113 91.7631 161.206 90.8565C160.299 89.9498 159.07 89.4404 157.787 89.4404Z" fill="#2F2E41"/>
<path d="M157.177 88.3562L160.976 87.164L158.185 71.9441L152.579 73.7037L157.177 88.3562Z" fill="#FEB8B8"/>
<path d="M163.351 85.2278L156.025 87.527L157.472 92.1399L169.411 88.3932C169.221 87.7874 168.913 87.225 168.506 86.7381C168.099 86.2512 167.599 85.8493 167.036 85.5554C166.474 85.2615 165.859 85.0813 165.226 85.0251C164.594 84.9689 163.956 85.0378 163.351 85.2279L163.351 85.2278Z" fill="#2F2E41"/>
<path d="M155.882 82.2284C156.056 82.2284 156.228 82.197 156.391 82.1358L159.321 81.0376C159.65 80.9132 159.923 80.6747 160.091 80.3657C160.259 80.0567 160.31 79.6977 160.235 79.3541C159.498 76.0383 156.984 64.7496 155.608 58.6948C153.976 51.5128 130.166 50.1783 129.153 50.125L129.07 50.1206L126.391 53.485C125.424 56.5959 125.73 59.0224 127.303 60.6973C131.893 65.5839 145.596 62.5517 147.23 62.168L154.513 81.2874C154.619 81.5643 154.806 81.8024 155.051 81.9704C155.295 82.1384 155.584 82.2284 155.881 82.2284H155.882Z" fill="#2F2E41"/>
<path d="M151.66 84.5018C151.834 84.5018 152.006 84.4704 152.169 84.4092L155.098 83.3108C155.427 83.1864 155.701 82.9479 155.868 82.6389C156.036 82.3299 156.087 81.9709 156.012 81.6273C155.275 78.3115 152.762 67.0228 151.385 60.968C149.753 53.786 125.943 52.4514 124.93 52.3982L124.847 52.3938L122.17 55.7592C121.202 58.8701 121.509 61.2965 123.081 62.9715C127.671 67.8568 141.374 64.8258 143.008 64.4419L150.292 83.5606C150.398 83.8375 150.586 84.0756 150.83 84.2436C151.074 84.4116 151.364 84.5016 151.66 84.5016L151.66 84.5018Z" fill="#2F2E41"/>
<path d="M160.134 37.7296C160.027 37.8735 159.931 38.0257 159.847 38.1848L143.83 39.8722L141.524 36.7108L136.298 39.5668L140.827 47.238L160.471 42.2294C160.966 42.7126 161.597 43.0335 162.28 43.1493C162.962 43.2652 163.664 43.1706 164.291 42.878C164.918 42.5854 165.442 42.1089 165.791 41.5116C166.141 40.9143 166.301 40.2247 166.249 39.5345C166.198 38.8442 165.937 38.1861 165.502 37.6475C165.067 37.109 164.479 36.7155 163.815 36.5196C163.151 36.3236 162.444 36.3344 161.786 36.5505C161.128 36.7666 160.552 37.1778 160.134 37.7293L160.134 37.7296Z" fill="#FEB8B8"/>
<path d="M122.913 57.0472C123.145 57.0466 123.373 56.9911 123.579 56.8851C126.782 55.2565 133.018 52.4362 138.802 51.846C138.999 51.8266 139.191 51.766 139.364 51.6682C139.537 51.5703 139.688 51.4374 139.807 51.2778C139.928 51.1166 140.014 50.9321 140.061 50.736C140.107 50.5398 140.113 50.3362 140.078 50.1377C139.556 47.2489 138.359 39.8926 138.513 33.997C138.558 32.1843 137.985 30.41 136.889 28.9659C135.792 27.5218 134.237 26.4939 132.478 26.051C131.42 25.7717 130.345 25.5598 129.26 25.4163C128.012 25.2584 126.745 25.3947 125.56 25.8146C124.375 26.2344 123.304 26.926 122.434 27.8339C121.564 28.7419 120.919 29.841 120.55 31.0432C120.181 32.2454 120.099 33.5173 120.31 34.7569C121.341 40.8666 122.381 49.4001 121.477 55.357C121.436 55.624 121.469 55.8973 121.573 56.1465C121.678 56.3958 121.849 56.6114 122.068 56.7693C122.313 56.9489 122.609 57.0462 122.913 57.0472Z" fill="#CCCCCC"/>
<path d="M138.216 41.5072C138.415 41.5069 138.613 41.4657 138.796 41.3861L142.968 39.5802C143.324 39.4258 143.603 39.1368 143.746 38.7766C143.889 38.4163 143.882 38.0142 143.729 37.6584L140.504 30.2079C140.312 29.7564 140.033 29.3471 139.684 29.0033C139.334 28.6595 138.92 28.388 138.465 28.2042C138.01 28.0204 137.524 27.928 137.033 27.9323C136.543 27.9365 136.058 28.0373 135.607 28.2289C135.155 28.4205 134.746 28.6991 134.402 29.0489C134.058 29.3986 133.787 29.8127 133.603 30.2674C133.419 30.7221 133.327 31.2086 133.331 31.699C133.335 32.1894 133.436 32.6742 133.628 33.1257C133.635 33.1421 133.642 33.1584 133.649 33.1748L136.874 40.6255C136.988 40.8871 137.175 41.1098 137.413 41.2664C137.652 41.423 137.93 41.5067 138.216 41.5072Z" fill="#CCCCCC"/>
<path d="M128.664 22.8819C124.259 22.8819 120.688 19.3108 120.688 14.9056C120.688 10.5003 124.259 6.9292 128.664 6.9292C133.069 6.9292 136.641 10.5003 136.641 14.9056C136.641 19.3108 133.069 22.8819 128.664 22.8819Z" fill="#FEB8B8"/>
<path d="M136.785 10.9858C133.007 13.2922 128.748 14.6956 124.339 15.087L125.651 13.5151C124.695 13.8683 123.69 14.0679 122.672 14.1064C122.163 14.1212 121.657 14.0163 121.195 13.8002C120.733 13.5841 120.329 13.2627 120.014 12.8619C119.757 12.4459 119.604 11.9739 119.568 11.4861C119.533 10.9982 119.616 10.5091 119.811 10.0603C120.21 9.16496 120.833 8.38679 121.618 7.79988C123.011 6.69839 124.654 5.9585 126.402 5.64614C128.149 5.33378 129.947 5.45866 131.635 6.00966C132.793 6.35564 133.83 7.02077 134.627 7.92884C135.383 8.86169 136.839 9.69291 136.452 10.8295L136.785 10.9858Z" fill="#2F2E41"/>
<path d="M127.952 4.2665C126.362 2.65384 124.438 1.40931 122.315 0.620522C120.968 0.0537138 119.49 -0.129699 118.045 0.0905398C116.621 0.377179 115.274 1.36259 114.876 2.76036C114.552 3.90322 114.887 5.13382 115.391 6.21022C115.895 7.28663 116.569 8.28384 116.976 9.39984C117.393 10.5386 117.518 11.7632 117.341 12.9626C117.163 14.162 116.69 15.2982 115.962 16.2679C115.234 17.2377 114.276 18.0103 113.174 18.5157C112.072 19.0211 110.861 19.2433 109.651 19.162C111.051 19.3498 112.341 20.0076 113.709 20.3574C115.077 20.7073 116.692 20.6839 117.709 19.7036C118.784 18.6665 118.806 16.9805 118.754 15.4873L118.522 8.82795C118.483 7.69598 118.449 6.52766 118.857 5.4707C119.266 4.41375 120.236 3.48877 121.369 3.4985C122.227 3.50567 122.987 4.02593 123.675 4.53878C124.364 5.05163 125.093 5.59874 125.948 5.67515C126.803 5.75156 127.779 5.11947 127.715 4.26279" fill="#2F2E41"/>
<path d="M142.075 54.9982C142.604 54.9975 143.125 54.8797 143.603 54.6531C144.08 54.4265 144.502 54.0968 144.836 53.6879C145.171 53.2789 145.411 52.8007 145.539 52.2879C145.666 51.7751 145.679 51.2403 145.575 50.7221C145.471 50.2039 145.253 49.7152 144.938 49.2912C144.623 48.8672 144.217 48.5184 143.75 48.27C143.284 48.0216 142.768 47.8798 142.24 47.8547C141.712 47.8297 141.186 47.922 140.698 48.1251C140.551 48.187 140.409 48.2591 140.272 48.3409L125.742 41.8183L125.334 37.8776L119.07 37.71L119.112 44.2705C119.119 45.0306 119.372 45.7679 119.832 46.3731C120.292 46.9783 120.935 47.419 121.665 47.6298L138.656 52.4654C138.689 52.5776 138.728 52.6881 138.772 52.7963C139.045 53.4474 139.503 54.0037 140.091 54.3953C140.678 54.7869 141.368 54.9966 142.074 54.9979L142.075 54.9982Z" fill="#FEB8B8"/>
<path d="M119.601 40.9246C119.779 41.0147 119.974 41.0673 120.173 41.0792L124.712 41.3582C125.098 41.3816 125.478 41.2505 125.769 40.9939C126.059 40.7373 126.236 40.3761 126.26 39.9894L126.758 31.8857C126.818 30.8977 126.483 29.9264 125.827 29.1853C125.171 28.4441 124.247 27.9936 123.259 27.9328C122.271 27.8721 121.3 28.2059 120.558 28.8611C119.816 29.5163 119.364 30.4392 119.302 31.427L118.804 39.5307C118.787 39.8154 118.853 40.0989 118.995 40.3465C119.136 40.5941 119.347 40.795 119.601 40.9246H119.601Z" fill="#CCCCCC"/>
<path d="M128.739 53.5442H155.844C156.072 53.5442 156.256 53.7285 156.256 53.9559V55.4057C156.256 55.6331 156.072 55.8174 155.844 55.8174H128.739C128.511 55.8174 128.327 55.6331 128.327 55.4057V53.9559C128.327 53.7285 128.511 53.5442 128.739 53.5442Z" fill="#3F3D56"/>
<path d="M166.671 53.7066V37.7935C166.67 37.2339 166.448 36.6974 166.052 36.3016C165.656 35.9059 165.12 35.6833 164.56 35.6826H135.657C135.097 35.6832 134.561 35.9058 134.165 36.3016C133.769 36.6973 133.547 37.2339 133.546 37.7935V53.7066C133.547 54.2663 133.769 54.8029 134.165 55.1986C134.561 55.5943 135.097 55.8169 135.657 55.8175H164.56C165.12 55.8169 165.656 55.5942 166.052 55.1985C166.448 54.8028 166.67 54.2663 166.671 53.7066Z" fill="#3F3D56"/>
<path d="M149.761 47.6997C148.685 47.6997 147.813 46.8273 147.813 45.7511C147.813 44.6749 148.685 43.8025 149.761 43.8025C150.838 43.8025 151.71 44.6749 151.71 45.7511C151.71 46.8273 150.838 47.6997 149.761 47.6997Z" fill="white"/>
<path d="M41.3735 55.5587C41.1416 55.2315 40.9842 54.8576 40.9124 54.463C40.8407 54.0685 40.8563 53.6631 40.9582 53.2752C41.0601 52.8874 41.2457 52.5267 41.5021 52.2183C41.7585 51.91 42.0794 51.6617 42.4422 51.4908L50.0426 27.6929L55.336 30.4426L46.2005 52.9706C46.4472 53.599 46.4548 54.2961 46.2218 54.9297C45.9889 55.5634 45.5316 56.0896 44.9366 56.4086C44.3416 56.7276 43.6502 56.8173 42.9935 56.6606C42.3369 56.504 41.7604 56.1119 41.3735 55.5586V55.5587Z" fill="#9F616A"/>
<path d="M47.5826 30.9837C47.5098 30.8226 47.4727 30.6478 47.4737 30.4711C47.4746 30.2943 47.5138 30.1199 47.5883 29.9597L50.1916 24.3628C50.4482 23.4957 51.0383 22.7658 51.8323 22.3331C52.6263 21.9004 53.5596 21.8003 54.4273 22.0546C55.2951 22.309 56.0266 22.8971 56.4614 23.6899C56.8962 24.4828 56.9989 25.4157 56.7469 26.2842L55.8768 32.4154C55.852 32.5904 55.7897 32.7579 55.6943 32.9067C55.5988 33.0554 55.4724 33.1819 55.3237 33.2774C55.175 33.3729 55.0075 33.4352 54.8325 33.4601C54.6576 33.485 54.4793 33.4719 54.3098 33.4217L48.3542 31.6572C48.1847 31.607 48.028 31.5209 47.8949 31.4047C47.7617 31.2885 47.6552 31.1449 47.5826 30.9837Z" fill="#FF63EA"/>
<path d="M69.5397 31.9282L69.1152 37.8726L54.679 42.9677L54.4668 37.2356L69.5397 31.9282Z" fill="#9F616A"/>
<path d="M51.0704 23.2243L55.7409 19.8275L63.3835 17.7046L69.7524 18.9784L70.8139 28.9562L69.5401 35.3251L52.9811 39.1464L51.2827 36.1743C51.2827 36.1743 47.4614 32.353 50.4335 28.107L51.0704 23.2243Z" fill="#FF63EA"/>
<path d="M49.3721 14.5059V8.93069C49.3721 6.5719 50.3091 4.30972 51.977 2.64181C53.6449 0.97389 55.9071 0.0368652 58.2659 0.0368652C60.6247 0.0368652 62.8869 0.97389 64.5548 2.64181C66.2227 4.30972 67.1597 6.5719 67.1597 8.93069V14.5059C67.1594 14.8227 67.0334 15.1263 66.8094 15.3503C66.5854 15.5743 66.2818 15.7003 65.965 15.7006H50.5668C50.25 15.7003 49.9463 15.5743 49.7224 15.3503C49.4984 15.1263 49.3724 14.8227 49.3721 14.5059Z" fill="#2F2E41"/>
<path d="M57.9083 15.6458C61.5096 15.6458 64.429 12.7264 64.429 9.12513C64.429 5.52388 61.5096 2.60449 57.9083 2.60449C54.3071 2.60449 51.3877 5.52388 51.3877 9.12513C51.3877 12.7264 54.3071 15.6458 57.9083 15.6458Z" fill="#9F616A"/>
<path d="M51.209 9.10009C51.1467 9.02818 51.1006 8.94371 51.0738 8.85241C51.047 8.76111 51.0401 8.66512 51.0536 8.57093L51.826 3.19222C51.8414 3.08278 51.8837 2.97888 51.9493 2.88992C52.0149 2.80097 52.1016 2.72977 52.2016 2.68276C56.1442 0.837576 60.1422 0.835239 64.0848 2.67576C64.1894 2.72534 64.2793 2.80121 64.3458 2.89597C64.4123 2.99072 64.4531 3.1011 64.4641 3.21633L64.9797 8.60205C64.9886 8.69413 64.978 8.78704 64.9489 8.87482C64.9197 8.96259 64.8724 9.04329 64.8102 9.11175C64.748 9.1802 64.6722 9.2349 64.5876 9.27231C64.503 9.30973 64.4115 9.32904 64.319 9.32902H63.0113C62.8851 9.32871 62.7615 9.29256 62.6551 9.22477C62.5486 9.15698 62.4636 9.06033 62.4099 8.94609L61.8455 7.73687C61.809 7.65857 61.748 7.59428 61.6718 7.55368C61.5955 7.51309 61.5081 7.4984 61.4227 7.51184C61.3374 7.52527 61.2587 7.5661 61.1986 7.62816C61.1385 7.69022 61.1002 7.77014 61.0895 7.85588L60.978 8.74749C60.9578 8.90795 60.8797 9.05554 60.7585 9.16259C60.6373 9.26964 60.4812 9.32881 60.3194 9.32902H51.7106C51.6155 9.32903 51.5215 9.3086 51.4349 9.2691C51.3484 9.2296 51.2713 9.17197 51.209 9.10009Z" fill="#2F2E41"/>
<path d="M79.5142 52.7821C79.1236 52.6914 78.7576 52.5162 78.4421 52.2687C78.1266 52.0213 77.8691 51.7077 77.6879 51.35C77.5067 50.9923 77.4061 50.5992 77.3932 50.1984C77.3804 49.7976 77.4555 49.3989 77.6134 49.0303L67.502 26.1859L73.2862 24.729L81.4066 47.6424C82.0082 47.9487 82.4766 48.4651 82.723 49.0936C82.9693 49.7222 82.9766 50.4193 82.7433 51.0528C82.51 51.6864 82.0525 52.2123 81.4573 52.5311C80.8622 52.8498 80.1708 52.9391 79.5142 52.7821Z" fill="#9F616A"/>
<path d="M67.8469 30.2799C67.6856 30.2077 67.5417 30.1016 67.4251 29.9687C67.3086 29.8359 67.2221 29.6795 67.1715 29.5101L65.4036 23.5961C65.02 22.7772 64.9768 21.8396 65.2835 20.9889C65.5902 20.1382 66.2217 19.4438 67.0396 19.0581C67.8574 18.6723 68.7949 18.6266 69.6464 18.931C70.4979 19.2354 71.194 19.8651 71.5819 20.6819L75.0008 25.8453C75.0984 25.9927 75.1631 26.1593 75.1904 26.3339C75.2178 26.5085 75.2071 26.687 75.1593 26.8571C75.1115 27.0273 75.0275 27.1851 74.9132 27.3199C74.7988 27.4546 74.6568 27.5632 74.4968 27.6381L68.8711 30.2714C68.711 30.3464 68.5366 30.386 68.3599 30.3875C68.1831 30.3889 68.0082 30.3522 67.8469 30.2799Z" fill="#FF63EA"/>
<path d="M68.8139 108.535L65.1336 108.534L63.3828 94.3391L68.8144 94.3394L68.8139 108.535Z" fill="#9F616A"/>
<path d="M69.7516 112.102L57.8848 112.102V111.952C57.8849 110.727 58.3715 109.552 59.2377 108.686C60.1039 107.819 61.2787 107.333 62.5037 107.333H62.504L69.7518 107.333L69.7516 112.102Z" fill="#2F2E41"/>
<path d="M66.017 78.5631L63.508 81.2554L51.9287 72.859L55.6319 68.8853L66.017 78.5631Z" fill="#9F616A"/>
<path d="M69.2666 80.3082L61.1764 88.9898L61.0666 88.8875C60.1705 88.0524 59.6428 86.8955 59.5996 85.6712C59.5563 84.447 60.0012 83.2558 60.8362 82.3595L60.8364 82.3593L65.7776 77.0569L69.2666 80.3082Z" fill="#2F2E41"/>
<path d="M69.9644 37.8725L71.1414 39.0496C77.029 44.9372 78.4785 53.1008 77.7714 61.397C77.6724 62.6272 77.4755 63.8475 77.1824 65.0463C75.0595 73.5381 76.3332 100.712 72.0873 102.41L71.2382 105.382L62.9586 105.076L63.1709 102.41C63.1709 102.41 61.2603 98.3766 62.534 95.8291C63.8078 93.2815 66.5677 74.3873 66.5677 74.3873L65.0816 58.8897L54.0422 64.4094C54.0422 64.4094 59.7742 67.5938 59.3496 69.7168C59.3496 69.7168 62.7463 70.566 61.8972 72.6889L63.1709 75.2365L60.1988 79.907C60.1988 79.907 40.2431 68.0184 41.9414 62.0742C43.6398 56.1299 54.2545 51.884 54.2545 51.884L55.1037 45.5152L54.3716 42.0449L69.225 36.3352L69.9644 37.8725Z" fill="#2F2E41"/>
<path d="M51.2216 79.3206C52.8768 79.3206 54.2186 77.9788 54.2186 76.3236C54.2186 74.6685 52.8768 73.3267 51.2216 73.3267C49.5664 73.3267 48.2246 74.6685 48.2246 76.3236C48.2246 77.9788 49.5664 79.3206 51.2216 79.3206Z" fill="#3F3D56"/>
<path d="M51.8864 77.0904C51.7921 76.8145 51.6333 76.5651 51.4232 76.3629C51.3457 76.291 51.2618 76.2263 51.1726 76.1695C50.4615 75.6954 49.3989 75.5892 48.7232 76.1695C48.6552 76.2285 48.5923 76.2932 48.5352 76.3629C48.3336 76.6109 48.1266 76.8533 47.914 77.0904C47.5653 77.4882 47.2084 77.8723 46.8351 78.2456C46.7289 78.3491 46.6226 78.4554 46.5136 78.5589C46.451 78.6216 46.3883 78.6815 46.3256 78.7414C46.0859 78.9703 45.8407 79.191 45.5927 79.4089C45.462 79.5261 45.3312 79.6405 45.1977 79.7522C44.9988 79.9184 44.7999 80.0846 44.5983 80.2454C44.5792 80.259 44.5602 80.2726 44.5411 80.289C44.5356 80.2917 44.5329 80.2972 44.5275 80.2999C44.5247 80.2999 44.522 80.2999 44.5193 80.3053C44.5119 80.3082 44.5054 80.3129 44.5002 80.3189C44.4403 80.3598 44.3994 80.3871 44.3694 80.4116C44.3803 80.4061 44.3912 80.3979 44.4021 80.3925C44.3531 80.4306 44.3013 80.4688 44.2523 80.5069C43.7755 80.8584 43.2878 81.1962 42.7892 81.5123C41.5556 82.3018 40.2599 82.9897 38.9149 83.5693C38.825 83.6047 38.7324 83.6429 38.6397 83.6783C35.1182 85.121 31.2981 85.684 27.51 85.3185C27.1231 85.2885 26.7363 85.2476 26.3494 85.1958C25.9026 85.1305 25.4585 85.0514 25.0171 84.9615C23.3368 84.6263 21.6926 84.1299 20.1075 83.4794C18.1246 82.5714 16.2387 81.465 14.4786 80.1773C14.2062 79.9838 13.931 79.7904 13.6558 79.6024C13.9691 78.8341 14.277 78.0658 14.5767 77.292C14.7265 76.9187 14.871 76.5455 15.0126 76.1695C16.127 73.2733 17.1732 70.3499 18.1758 67.4156C19.1893 64.4431 20.1456 61.4534 21.0447 58.4464C21.1374 58.1413 21.2273 57.8361 21.3145 57.531C21.7858 55.9426 22.2381 54.3505 22.6713 52.7549C22.7121 52.5996 22.7557 52.447 22.7939 52.2917C22.9192 51.834 23.0418 51.3763 23.1617 50.9185C23.4341 49.8859 22.8184 48.6517 21.734 48.4038C21.2119 48.2699 20.6583 48.344 20.1897 48.6103C19.7211 48.8766 19.3742 49.3144 19.222 49.8315C19.1049 50.2728 18.9877 50.7115 18.8678 51.1529C18.293 53.2861 17.6881 55.4122 17.0533 57.531C16.9607 57.8361 16.868 58.1413 16.7754 58.4464C15.375 63.0618 13.8374 67.6308 12.1628 72.1535C11.9611 72.7012 11.7568 73.247 11.5497 73.791C11.4489 74.058 11.3481 74.325 11.2446 74.592C11.0457 75.1178 10.8414 75.6436 10.637 76.1695C10.5199 76.4774 10.4 76.7852 10.2801 77.0904C10.2011 77.2838 10.1248 77.4773 10.0485 77.668C9.27172 77.389 8.46689 77.1954 7.64822 77.0904L7.51744 77.074C6.88274 76.9977 6.24085 77.0032 5.60754 77.0904C4.6597 77.201 3.74772 77.5184 2.93607 78.0203C2.12442 78.5222 1.43292 79.1962 0.910458 79.9947C-0.389143 82.0409 -0.372797 84.967 1.44991 86.7052C3.32711 88.4953 6.1688 88.4816 8.3784 87.3619C9.54934 86.7284 10.5367 85.803 11.2446 84.6755C11.5158 84.2668 11.765 83.8438 11.9911 83.4086C12.0483 83.4467 12.1055 83.4848 12.1628 83.5257C12.3807 83.6783 12.5987 83.8336 12.8139 83.9862C14.068 84.8947 15.3896 85.7063 16.7672 86.4137C19.7293 87.8863 22.9178 88.8506 26.1995 89.2663C26.2731 89.2745 26.3439 89.2854 26.4175 89.2935C26.7799 89.3399 27.145 89.3753 27.51 89.4052C32.7472 89.7999 37.9907 88.7282 42.653 86.3102C43.048 86.1058 43.4395 85.8915 43.8272 85.6672C44.4294 85.3184 45.0179 84.9479 45.5927 84.5556C45.9061 84.3431 46.2112 84.1278 46.5136 83.9017C47.8352 82.9283 49.067 81.8387 50.1945 80.6459C50.6222 80.1963 51.0318 79.7323 51.4232 79.2536C51.7934 78.8621 52.0067 78.3482 52.0226 77.8096C52.0205 77.5637 51.9744 77.3201 51.8864 77.0904ZM6.77092 83.5802C6.82814 83.5393 6.88535 83.4958 6.93984 83.4522C6.9235 83.493 6.84448 83.5393 6.77093 83.5802H6.77092ZM7.6455 82.7002C7.58283 82.771 7.52561 82.8419 7.46295 82.9127C7.27231 83.126 7.06751 83.3263 6.84993 83.5121C6.81996 83.5393 6.78727 83.5666 6.75458 83.5911C6.75422 83.5911 6.75386 83.5912 6.75352 83.5913C6.75319 83.5914 6.75289 83.5916 6.75263 83.5919C6.75238 83.5921 6.75218 83.5924 6.75204 83.5928C6.75191 83.5931 6.75184 83.5935 6.75185 83.5938C6.71249 83.6114 6.67427 83.6314 6.63741 83.6538C6.52025 83.7246 6.40038 83.79 6.27779 83.8499C6.03773 83.9383 5.79077 84.0067 5.53944 84.0543C5.34631 84.0684 5.15248 84.0702 4.95911 84.0597H4.95366C4.82021 84.0301 4.68836 83.9937 4.55861 83.9507C4.49322 83.918 4.43055 83.8799 4.36789 83.8418C4.34337 83.82 4.32156 83.7982 4.30795 83.7845C4.28133 83.7602 4.25674 83.7338 4.2344 83.7055C4.23441 83.7052 4.23434 83.7048 4.2342 83.7045C4.23407 83.7041 4.23388 83.7038 4.23362 83.7036C4.23337 83.7033 4.23306 83.7031 4.23272 83.703C4.23239 83.7029 4.23204 83.7028 4.23168 83.7028C4.20169 83.6483 4.169 83.5938 4.13904 83.5393C4.13749 83.5379 4.13652 83.536 4.13632 83.5339C4.11452 83.4658 4.09545 83.3949 4.0791 83.3241C4.07319 83.1997 4.0741 83.0751 4.08182 82.9508C4.11838 82.7768 4.16756 82.6056 4.22895 82.4386C4.28411 82.3202 4.34691 82.2056 4.41694 82.0953C4.42239 82.0844 4.44964 82.0408 4.47961 81.9918C4.48234 81.9891 4.48233 81.9891 4.48233 81.9864C4.5232 81.94 4.56407 81.891 4.60766 81.8474C4.68123 81.7657 4.76024 81.6948 4.83925 81.6213C4.99291 81.5207 5.15209 81.4288 5.31604 81.3461C5.57614 81.2537 5.84304 81.1817 6.11433 81.1309C6.51437 81.0991 6.91644 81.1027 7.31585 81.1417C7.69415 81.2074 8.0674 81.2993 8.4329 81.4169C8.21138 81.8468 7.95916 82.2602 7.67821 82.6539C7.66729 82.6702 7.6564 82.6866 7.6455 82.7002ZM4.61582 81.8038C4.59182 81.8423 4.56348 81.878 4.53136 81.91C4.55298 81.8699 4.58158 81.8339 4.61582 81.8038Z" fill="#3F3D56"/>
<path d="M43.6962 49.2648C43.6717 50.1203 43.6472 50.9758 43.6226 51.8313C43.5709 53.7303 43.5173 55.6302 43.4619 57.5311C43.4047 59.6698 43.3447 61.8077 43.2821 63.9446C43.2521 65.048 43.2212 66.1515 43.1894 67.2549C43.105 70.2274 43.0214 73.1989 42.9388 76.1696C42.9306 76.4774 42.9197 76.7826 42.9115 77.0905C42.8707 78.5644 42.8298 80.0384 42.7889 81.5124C42.7426 83.1117 42.6972 84.711 42.6527 86.3103C42.62 87.5091 42.5864 88.7087 42.5519 89.9094C42.3067 98.6088 42.0615 107.308 41.8163 116.008C41.8059 116.546 41.5873 117.06 41.2063 117.441C40.8253 117.822 40.3116 118.041 39.7729 118.051C39.2323 118.047 38.7151 117.83 38.3328 117.448C37.9505 117.065 37.7338 116.548 37.7295 116.008C37.8657 111.114 38.0038 106.221 38.1436 101.328C38.2662 96.9032 38.3906 92.4786 38.5169 88.054C38.5577 86.5963 38.5986 85.1378 38.6395 83.6784C38.7021 81.4824 38.7639 79.2864 38.8248 77.0905C38.8329 76.7826 38.8438 76.4774 38.852 76.1696C38.8574 75.8998 38.8656 75.6328 38.8738 75.3631C38.9937 71.0992 39.1136 66.8344 39.2334 62.5687C39.2825 60.8904 39.3297 59.2112 39.3751 57.5311C39.4296 55.6157 39.4841 53.7013 39.5386 51.7877C39.5631 50.9459 39.5849 50.1067 39.6094 49.2648C39.6198 48.7261 39.8384 48.2124 40.2194 47.8314C40.6004 47.4504 41.1141 47.2318 41.6528 47.2214C42.1934 47.2258 42.7106 47.4425 43.0929 47.8248C43.4752 48.207 43.6919 48.7242 43.6962 49.2648Z" fill="#3F3D56"/>
<path d="M6.18546 85.3077C7.84065 85.3077 9.18244 83.9659 9.18244 82.3107C9.18244 80.6555 7.84065 79.3137 6.18546 79.3137C4.53027 79.3137 3.18848 80.6555 3.18848 82.3107C3.18848 83.9659 4.53027 85.3077 6.18546 85.3077Z" fill="#3F3D56"/>
<path d="M40.8681 118.826C42.5233 118.826 43.8651 117.484 43.8651 115.829C43.8651 114.174 42.5233 112.832 40.8681 112.832C39.2129 112.832 37.8711 114.174 37.8711 115.829C37.8711 117.484 39.2129 118.826 40.8681 118.826Z" fill="#3F3D56"/>
<path d="M43.7836 49.0714C43.7818 49.8369 43.4857 50.5725 42.9567 51.1258C42.4277 51.6792 41.7062 52.008 40.9415 52.0442C40.1768 52.0803 39.4275 51.8212 38.8485 51.3202C38.2696 50.8193 37.9055 50.115 37.8314 49.3531C37.7573 48.5911 37.979 47.8298 38.4506 47.2268C38.9222 46.6237 39.6075 46.2251 40.3649 46.1133C41.1222 46.0015 41.8935 46.1851 42.5192 46.6262C43.1449 47.0673 43.5771 47.7321 43.7263 48.4829C43.7648 48.6767 43.7839 48.8738 43.7836 49.0714Z" fill="#3F3D56"/>
<path d="M201.617 40.5402C199.427 48.8318 196.81 57.0045 193.776 65.0256C192.939 67.2382 192.083 69.4463 191.167 71.6277L191.378 71.1289C190.969 72.168 190.447 73.1588 189.821 74.0835C189.779 74.1432 189.735 74.2022 189.691 74.2607C189.908 73.9841 189.949 73.9294 189.815 74.0967C189.744 74.1805 189.674 74.2644 189.601 74.3461C189.406 74.5642 189.197 74.7691 188.975 74.9595C188.919 75.0073 188.862 75.0541 188.804 75.0999L189.065 74.8969C189.035 74.9684 188.822 75.0633 188.756 75.1038C188.542 75.2332 188.318 75.3466 188.087 75.443L188.585 75.2325C188.206 75.3852 187.811 75.4936 187.407 75.5557L187.962 75.4811C187.566 75.5359 187.164 75.5402 186.766 75.4939L187.321 75.5685C186.995 75.5237 186.677 75.4379 186.373 75.3132L186.872 75.5237C186.71 75.453 186.553 75.3696 186.404 75.2742C186.329 75.2249 186.097 75.0491 186.4 75.281C186.716 75.5221 186.441 75.3017 186.376 75.2377C186.322 75.1843 186.273 75.1263 186.22 75.072C185.974 74.8201 186.497 75.5054 186.33 75.2108C186.241 75.0632 186.16 74.9111 186.086 74.7551L186.296 75.2539C186.201 75.0165 186.133 74.7688 186.094 74.5157L186.168 75.0708C186.128 74.7561 186.128 74.4376 186.167 74.1228L186.093 74.6779C186.144 74.3266 186.237 73.9825 186.37 73.6533L186.159 74.1521C186.252 73.9307 186.362 73.7167 186.487 73.5122C186.545 73.4064 186.613 73.3065 186.69 73.2138C186.704 73.2183 186.337 73.635 186.532 73.4246C186.583 73.3696 186.63 73.3116 186.682 73.257C186.764 73.1696 186.853 73.0897 186.939 73.007C187.23 72.7301 186.532 73.276 186.868 73.0569C187.111 72.8969 187.367 72.7573 187.633 72.6394L187.135 72.8499C187.58 72.6668 188.048 72.5415 188.525 72.4769L187.97 72.5515C188.568 72.4827 189.173 72.4898 189.769 72.5728L189.214 72.4982C189.969 72.6127 190.707 72.8203 191.411 73.1163L190.912 72.9058C192.413 73.55 193.742 74.5065 195.069 75.4445C196.35 76.3724 197.701 77.2014 199.108 77.9243C202.135 79.4295 205.394 80.4152 208.748 80.8405C213.558 81.4297 218.439 80.8016 222.943 79.0136C227.447 77.2257 231.43 74.3354 234.526 70.6077C234.904 70.207 235.122 69.6816 235.138 69.1311C235.134 68.578 234.914 68.0483 234.526 67.6545C233.76 66.9512 232.313 66.7526 231.573 67.6545C230.872 68.5105 230.118 69.3221 229.316 70.0843C228.941 70.4396 228.557 70.7839 228.163 71.1172C227.937 71.3077 227.709 71.4943 227.477 71.6772C227.368 71.7638 227.027 71.9941 227.551 71.6223C227.431 71.7075 227.315 71.8005 227.197 71.8881C225.443 73.1808 223.543 74.2616 221.536 75.1081L222.035 74.8976C219.881 75.8011 217.618 76.4209 215.305 76.7415L215.86 76.6669C213.48 76.9799 211.068 76.9764 208.689 76.6563L209.244 76.7308C206.866 76.4042 204.539 75.7705 202.323 74.8458L202.822 75.0563C200.684 74.1102 198.655 72.9347 196.77 71.5506C195.789 70.8243 194.755 70.1733 193.676 69.6032C192.419 68.9612 191.058 68.5475 189.656 68.3813C187.028 68.072 184.35 69.0957 182.905 71.3662C181.576 73.4557 181.593 76.4457 183.455 78.2225C185.372 80.0525 188.277 80.037 190.537 78.8923C192.713 77.7899 194.021 75.4996 194.94 73.34C197.009 68.4799 198.841 63.5076 200.548 58.51C202.236 53.5656 203.767 48.5712 205.141 43.5268C205.311 42.902 205.479 42.2766 205.644 41.6505C205.923 40.5956 205.293 39.334 204.186 39.0818C203.652 38.9444 203.086 39.0197 202.607 39.2918C202.127 39.5639 201.773 40.0115 201.617 40.5402L201.617 40.5402Z" fill="#3F3D56"/>
<path d="M222.452 39.9608L221.701 66.6324L220.953 93.1651L220.53 108.168C220.535 108.72 220.757 109.249 221.147 109.639C221.538 110.03 222.066 110.251 222.618 110.256C223.169 110.245 223.694 110.022 224.083 109.633C224.473 109.243 224.696 108.718 224.707 108.168L225.458 81.4963L226.206 54.9636L226.629 39.9608C226.624 39.4084 226.403 38.88 226.012 38.4894C225.621 38.0988 225.093 37.8773 224.541 37.8726C223.99 37.8832 223.465 38.1066 223.076 38.496C222.686 38.8853 222.463 39.4103 222.452 39.9608Z" fill="#3F3D56"/>
<path d="M222.624 110.763C224.316 110.763 225.687 109.391 225.687 107.7C225.687 106.008 224.316 104.637 222.624 104.637C220.933 104.637 219.562 106.008 219.562 107.7C219.562 109.391 220.933 110.763 222.624 110.763Z" fill="#3F3D56"/>
<path d="M232.492 71.2258C234.184 71.2258 235.555 69.8546 235.555 68.1631C235.555 66.4716 234.184 65.1003 232.492 65.1003C230.801 65.1003 229.43 66.4716 229.43 68.1631C229.43 69.8546 230.801 71.2258 232.492 71.2258Z" fill="#3F3D56"/>
<path d="M223.583 42.8259C225.275 42.8259 226.646 41.4547 226.646 39.7632C226.646 38.0717 225.275 36.7004 223.583 36.7004C221.892 36.7004 220.521 38.0717 220.521 39.7632C220.521 41.4547 221.892 42.8259 223.583 42.8259Z" fill="#3F3D56"/>
<path d="M249.053 52.2442L249.557 61.9891L254.189 63.2553C254.189 63.2553 252.208 51.8463 252.084 51.5023C252.369 51.0873 252.524 50.5793 252.49 50.0383C252.411 48.7484 251.3 47.7672 250.01 47.8468C248.721 47.9264 247.739 49.0366 247.819 50.3265C247.871 51.1669 248.361 51.8739 249.053 52.2442H249.053Z" fill="#FFB6B6"/>
<path d="M232.385 74.0251L232.275 74.2551C231.909 74.3426 231.969 74.2386 232.385 74.0251Z" fill="#6C63FF"/>
<path d="M252.252 71.9502C249.74 71.2658 247.156 71.0797 244.703 71.1837C242.103 71.2878 239.655 71.7202 237.619 72.2239C237.241 70.9264 236.885 69.5523 236.628 68.2548L239.398 66.4537L242.447 65.3861L248.831 63.1525L248.749 59.6871L249.422 59.3751L253.205 57.6287L253.293 57.5903L256.013 64.9701C257.059 67.9537 255.318 71.1837 252.252 71.9502H252.252Z" fill="#6C63FF"/>
<path d="M238.579 77.333L239.509 81.3288C239.509 81.3288 239.518 85.0133 240.171 85.6926C240.819 86.3688 255.067 85.0111 255.067 85.0111C255.067 85.0111 253.556 79.0738 253.576 74.5813L238.579 77.333Z" fill="#FFB6B6"/>
<path d="M293.534 113.798L295.987 112.03L290.275 101.476L286.655 104.086L293.534 113.798Z" fill="#FFB6B6"/>
<path d="M302.99 108.696C302.946 108.636 302.902 108.581 302.853 108.526C302.711 108.378 302.536 108.263 302.349 108.198L302.338 108.192C302.125 108.11 301.895 108.088 301.665 108.121L300.652 108.28L296.733 108.887L295.906 109.019L294.417 107.453L293.842 108.066L291.86 110.19L291.356 110.727L290.968 111.143L295.758 117.121L297.4 115.561L296.223 113.732L298.446 114.57L299.7 113.377L300.537 112.588L302.804 110.437C303.028 110.223 303.16 109.955 303.209 109.67C303.264 109.336 303.193 108.986 302.99 108.696H302.99Z" fill="#2F2E41"/>
<path d="M292.068 103.852L287.632 105.838C283.036 100.977 278.411 94.7328 275.513 84.5213C268.893 93.0919 263.061 97.9442 255.145 102.199C252.472 103.647 242.801 104.167 241.296 101.456C241.226 101.329 241.16 101.2 241.1 101.069C239.717 98.0212 240.94 90.0887 240.157 86.0585C243.016 80.8124 249.99 85.0501 254.761 82.9842L260.098 85.303L269.998 73.5329C271.989 71.1658 275.554 70.9065 277.961 72.9535C278.088 73.0616 278.21 73.1751 278.328 73.2937C280.323 76.6791 282.23 80.0069 283.97 83.2264C284.532 84.2656 286.3 85.6623 285.6 86.3086C284.901 86.9549 286.685 88.4376 287.191 89.4783C290.304 95.8857 291.606 99.1633 292.068 103.852H292.068Z" fill="#2F2E41"/>
<path d="M236.508 52.0356L242.384 51.6886C242.892 51.6586 243.363 51.9541 243.557 52.4245L245.218 56.45L252.119 62.154C252.119 62.154 254.852 65.6311 254.858 70.1217C254.864 74.6123 254.761 82.9842 254.761 82.9842C254.761 82.9842 251.84 79.393 249.378 80.886C248.959 81.14 248.812 81.6594 248.374 81.9219C248.155 82.0528 247.649 81.9255 247.428 82.0567C244.037 84.0701 240.637 85.597 240.169 85.6921C238.413 86.0487 237.862 84.6929 239.048 82.8046C239.435 82.1882 238.733 81.5547 238.733 81.5547C237.841 81.066 237.507 80.3726 238.128 79.3311L233.354 61.7925C232.781 59.6862 233.131 57.4132 234.395 55.6336C234.771 55.1045 235.164 54.711 235.53 54.6459C236.352 54.471 235.915 52.6298 236.508 52.0356Z" fill="#6C63FF"/>
<path d="M307.051 115.177L308.167 112.37L297.629 106.634L295.982 110.777L307.051 115.177Z" fill="#FFB6B6"/>
<path d="M303.436 109.04L302.114 114.083C293.158 111.754 283.928 106.281 274.57 99.3215C264.242 102.517 254.446 104.432 245.538 103.352C242.523 102.997 240.252 100.175 240.581 97.0924C240.596 96.9483 240.617 96.8049 240.643 96.6626C241.264 93.3748 246.45 90.4885 248.127 86.7432L259.151 89.368L259.97 91.4865L262.452 90.8306L264.549 90.2767L266.948 89.6426L274.814 87.5642C277.799 86.7753 280.859 88.6161 281.648 91.6756C281.69 91.8371 281.724 92.0004 281.752 92.165L292.646 100.643C292.646 100.643 293.618 102.916 294.366 101.981C295.113 101.046 296.512 103.651 296.512 103.651L303.436 109.04Z" fill="#2F2E41"/>
<path d="M315.15 108.028C314.739 107.863 314.269 107.913 313.902 108.159L309.051 111.394L307.042 110.595L306.719 111.581L305.706 114.641L305.46 115.391L312.32 118.807L313.157 116.699L311.318 115.533L313.688 115.364L315.905 109.78C316.179 109.09 315.84 108.301 315.15 108.028V108.028Z" fill="#2F2E41"/>
<path d="M230.139 40.5511C229.986 41.2372 229.82 41.9522 229.368 42.4905C228.916 43.0287 228.084 43.3184 227.491 42.941C226.766 42.4797 226.823 41.4213 226.968 40.5742L227.426 37.8878C227.513 37.3754 227.604 36.8539 227.84 36.3911C228.077 35.9283 228.488 35.525 228.998 35.4289C229.539 35.3273 230.103 35.5932 230.464 36.0085C230.824 36.4239 231.005 36.9675 231.094 37.5103C231.329 38.9499 230.943 40.4802 230.053 41.6361L230.139 40.5511V40.5511Z" fill="#2F2E41"/>
<path d="M227.979 36.6992C227.001 35.5058 224.962 35.685 223.876 36.7799C222.789 37.8749 222.52 39.5634 222.712 41.0942C222.905 42.624 223.71 48.9045 223.964 50.1097C224.283 51.6179 221.912 52.7192 220.396 52.4353C220.516 53.492 221.23 54.434 222.162 54.9462C223.095 55.457 224.217 55.5621 225.26 55.36C225.682 55.2778 226.097 55.145 226.488 54.9633C226.311 54.5072 226.201 54.0249 226.17 53.5352C226.372 53.9682 226.654 54.3618 226.996 54.6948C227.551 54.3594 228.04 53.9215 228.415 53.393C229.149 52.3573 229.408 50.9736 228.999 49.771C228.522 48.3658 227.267 47.3966 226.377 46.2095C225.486 45.023 225.03 43.1692 226.123 42.1654C226.955 41.4007 226.905 41.5697 228.021 41.7475L227.979 36.6992L227.979 36.6992Z" fill="#2F2E41"/>
<path d="M242.674 41.7125C242.674 45.4033 239.683 48.3953 235.992 48.3953C232.301 48.3953 228.795 44.1182 228.795 40.4274C228.795 36.7366 232.301 35.0298 235.992 35.0298C239.683 35.0298 242.674 38.0218 242.674 41.7125Z" fill="#2F2E41"/>
<path d="M238.007 49.8504C241.529 49.8504 244.383 46.9959 244.383 43.4748C244.383 39.9536 241.529 37.0991 238.007 37.0991C234.486 37.0991 231.632 39.9536 231.632 43.4748C231.632 46.9959 234.486 49.8504 238.007 49.8504Z" fill="#FFB6B6"/>
<path d="M246.016 42.4837C244.129 42.999 242.224 43.5392 241.488 42.4837C241.344 41.7845 241.074 41.1137 240.688 40.5148C240.616 41.1882 240.457 41.8514 240.218 42.4837C239.389 42.6327 238.236 42.6327 238.236 42.6327C237.966 43.0979 236.732 43.8678 236.688 44.4255C236.593 44.3639 236.493 44.315 236.39 44.2688C236.261 44.2148 236.11 44.1685 235.984 44.2328C235.889 44.2816 235.835 44.387 235.817 44.4924C235.799 44.5977 235.814 44.7057 235.832 44.8137C235.886 45.1761 235.945 45.5539 236.153 45.8572C236.3 46.0731 236.547 46.2427 236.798 46.271C237.066 47.7746 237.657 49.8077 237.657 49.8077C231.231 50.0648 229.31 45.3212 229.31 41.1985L230.081 39.6563H232.651V36.3149H239.848C243.253 36.3149 246.016 39.078 246.016 42.4836L246.016 42.4837Z" fill="#2F2E41"/>
<path d="M258.136 91.8742C256.827 91.7881 255.836 90.6575 255.922 89.3488C255.931 89.2171 255.952 89.0897 255.981 88.9652L240.751 77.533L244.736 75.7651L259 87.2402C260.023 87.5593 260.735 88.5439 260.661 89.6605C260.575 90.9692 259.444 91.9603 258.136 91.8742Z" fill="#FFB6B6"/>
<path d="M254.957 83.217L254.284 83.4469L250.452 84.7553C250.452 84.7553 250.369 84.717 250.222 84.6458C248.694 83.8958 240.083 79.6202 239.568 78.1256C239.316 77.392 238.424 74.9668 237.619 72.224C237.241 70.9265 236.885 69.5524 236.628 68.2549C236.212 66.1746 236.059 64.2804 236.491 63.1854C237.761 59.9719 240.663 60.7985 240.663 60.7985L242.448 65.3862L244.703 71.1838L246.526 75.8701C248.924 76.5106 251.858 79.5216 254.957 83.217H254.957Z" fill="#6C63FF"/>
<path d="M250.719 46.8932C250.648 46.8932 250.577 46.9041 250.511 46.9151C250.418 46.811 250.298 46.7344 250.15 46.6961C250.084 46.6742 250.008 46.6687 249.931 46.6687L245.086 46.7946C245.048 46.7946 245.004 46.8001 244.971 46.8056C244.801 46.8384 244.654 46.926 244.549 47.0464C244.511 47.0848 244.478 47.1286 244.451 47.1778C244.347 47.353 244.32 47.572 244.391 47.791C244.112 49.9894 244.216 52.0935 245.234 53.9718C245.338 54.2839 245.639 54.4974 245.967 54.4919L249.115 54.4098C249.132 54.4098 249.148 54.4098 249.165 54.4043C249.477 54.3769 249.745 54.1634 249.827 53.8568C250.598 52.2402 250.761 50.6501 250.27 49.0885C250.424 49.1596 250.599 49.198 250.774 49.1925C251.234 49.1816 251.623 48.9023 251.792 48.5136C251.864 48.3604 251.902 48.1906 251.896 48.0155C251.88 47.3804 251.349 46.8767 250.719 46.8932H250.719ZM250.769 48.864C250.621 48.8695 250.484 48.8312 250.363 48.7655L250.61 47.8841L250.681 47.6268C250.719 47.4899 250.714 47.353 250.681 47.2271C250.697 47.2271 250.714 47.2216 250.73 47.2216C251.179 47.2107 251.557 47.572 251.568 48.0209C251.568 48.114 251.557 48.2071 251.53 48.2892C251.426 48.6177 251.13 48.8531 250.769 48.864Z" fill="#3F3D56"/>
<path d="M244.969 46.8067C245.072 47.3969 246.232 47.8118 247.628 47.7397C248.911 47.6805 249.96 47.23 250.152 46.696C250.085 46.6744 250.01 46.6665 249.933 46.6668L245.088 46.7919C245.047 46.7947 245.005 46.7975 244.969 46.8067Z" fill="#6C63FF"/>
</svg>
