<svg width="369" height="543" viewBox="0 0 369 543" fill="none" xmlns="http://www.w3.org/2000/svg">
<rect width="337" height="529.315" rx="23.9958" fill="#6448AD"/>
<mask id="mask0_133_853" style="mask-type:luminance" maskUnits="userSpaceOnUse" x="0" y="0" width="337" height="530">
<rect width="337" height="529.315" rx="23.9958" fill="white"/>
</mask>
<g mask="url(#mask0_133_853)">
<g opacity="0.1">
<path fill-rule="evenodd" clip-rule="evenodd" d="M710.515 6.98389H425.129L336.922 266.336L567.819 426.619L798.723 266.336L710.515 6.98389ZM332.383 267.74L422.332 3.30835H713.312L803.26 267.74L567.818 431.171L332.383 267.74Z" fill="white"/>
<path fill-rule="evenodd" clip-rule="evenodd" d="M717.143 -2.10474H418.493L326.183 269.201L567.818 436.887L809.46 269.201L717.143 -2.10474ZM323.039 271.233L321.996 270.503L415.915 -5.51367H719.735L813.647 270.503L567.818 441.096L323.039 271.233Z" fill="white"/>
<path fill-rule="evenodd" clip-rule="evenodd" d="M723.769 -11.2124H411.874L315.471 272.072L567.822 447.155L820.179 272.072L723.769 -11.2124ZM311.609 273.265L409.495 -14.3354H726.156L824.034 273.265L567.822 451.021L311.609 273.265Z" fill="white"/>
<path fill-rule="evenodd" clip-rule="evenodd" d="M830.91 274.946L730.405 -20.3076H405.245L304.733 274.946L567.822 457.428L830.91 274.946ZM302.1 276.648L301.223 276.038L402.732 -22.1738L403.071 -23.1577H732.572L834.421 276.038L568.7 460.342L567.822 460.945L302.1 276.648Z" fill="white"/>
<path fill-rule="evenodd" clip-rule="evenodd" d="M737.036 -29.4089H398.609L294.008 277.809L567.825 467.69L841.637 277.809L737.036 -29.4089ZM290.836 278.799L396.654 -31.9795H738.991L844.809 278.799L567.826 470.87L290.836 278.799Z" fill="white"/>
<path fill-rule="evenodd" clip-rule="evenodd" d="M743.659 -38.51H391.978L283.269 280.69L567.822 477.964L852.369 280.69L743.659 -38.51ZM281.153 282.055L280.448 281.573L389.956 -40.0081L390.228 -40.8015H745.415L854.922 280.779L855.195 281.573L567.822 480.794L281.153 282.055Z" fill="white"/>
<path fill-rule="evenodd" clip-rule="evenodd" d="M750.297 -46.5088H385.348L272.543 284.655L567.819 489.327L863.101 284.655L750.297 -46.5088ZM270.68 285.855L270.062 285.424L383.571 -47.8224L383.817 -48.5205H751.826L865.349 284.725L865.582 285.424L567.818 491.822L270.68 285.855Z" fill="white"/>
<path fill-rule="evenodd" clip-rule="evenodd" d="M873.813 287.529L756.923 -55.5908H378.727L261.83 287.529L567.822 499.595L873.813 287.529ZM260.22 288.563L259.674 288.189L377.197 -56.7333L377.403 -57.3425H758.246L875.763 287.586L875.969 288.189L568.36 501.366L567.822 501.746L260.22 288.563Z" fill="white"/>
<path fill-rule="evenodd" clip-rule="evenodd" d="M763.553 -64.6985H372.09L251.091 290.399L567.818 509.869L884.546 290.399L763.553 -64.6985ZM249.733 291.275L249.288 290.958L370.806 -65.6503L370.972 -66.1643H764.665L886.19 290.456L886.356 290.958L567.819 511.671L249.733 291.275Z" fill="white"/>
<path fill-rule="evenodd" clip-rule="evenodd" d="M895.279 293.27L770.184 -73.7996H365.466L240.365 293.27L567.822 520.124L895.279 293.27ZM239.274 293.975L238.901 293.714L364.422 -74.5802L364.562 -74.9863H771.09L896.604 293.308L896.744 293.714L568.195 521.336L567.823 521.596L239.274 293.975Z" fill="white"/>
<path fill-rule="evenodd" clip-rule="evenodd" d="M905.999 296.815L776.81 -82.9055H358.834L229.639 296.815L567.816 531.492L905.999 296.815ZM228.8 297.356L228.514 297.165L358.142 -83.8081H777.502L907.13 297.165L568.095 532.426L567.815 532.623L228.8 297.356Z" fill="white"/>
<path fill-rule="evenodd" clip-rule="evenodd" d="M351.718 -92.6301L351.645 -92.4076L218.126 299.924L218.326 300.064L567.822 542.548L568.015 542.408L917.517 299.924L917.45 299.708L783.932 -92.6301H351.718ZM218.906 299.682L352.211 -92.0007H783.44L916.739 299.682L567.822 541.753L218.906 299.682Z" fill="white"/>
</g>
</g>
</svg>
