<svg width="320" height="443" viewBox="0 0 320 443" fill="none" xmlns="http://www.w3.org/2000/svg">
<g clip-path="url(#clip0_188_856)">
<rect width="320" height="443" rx="23.9958" fill="#6448AD"/>
<mask id="mask0_188_856" style="mask-type:luminance" maskUnits="userSpaceOnUse" x="0" y="0" width="320" height="443">
<rect width="320" height="443" rx="23.9958" fill="white"/>
</mask>
<g mask="url(#mask0_188_856)">
<g opacity="0.1">
<path fill-rule="evenodd" clip-rule="evenodd" d="M674.674 5.8457H403.684L319.926 222.906L539.176 357.051L758.432 222.906L674.674 5.8457ZM315.616 224.08L401.027 2.76953H677.329L762.739 224.08L539.175 360.861L315.616 224.08Z" fill="white"/>
<path fill-rule="evenodd" clip-rule="evenodd" d="M680.965 -1.76074H397.381L309.727 225.304L539.173 365.645L768.625 225.304L680.965 -1.76074ZM306.744 227.004L305.753 226.393L394.934 -4.61377H683.428L772.602 226.393L539.174 369.167L306.744 227.004Z" fill="white"/>
<path fill-rule="evenodd" clip-rule="evenodd" d="M687.258 -9.3833H391.096L299.556 227.706L539.177 374.238L778.804 227.706L687.258 -9.3833ZM295.89 228.704L388.837 -11.9976H689.524L782.465 228.704L539.177 377.473L295.89 228.704Z" fill="white"/>
<path fill-rule="evenodd" clip-rule="evenodd" d="M788.993 230.111L693.557 -16.9961H384.801L289.358 230.111L539.176 382.836L788.993 230.111ZM286.859 231.535L286.025 231.025L382.414 -18.5579L382.736 -19.3813H695.616L792.327 231.025L540.009 385.274L539.176 385.779L286.859 231.535Z" fill="white"/>
<path fill-rule="evenodd" clip-rule="evenodd" d="M699.854 -24.6133H378.499L279.174 232.507L539.179 391.424L799.178 232.507L699.854 -24.6133ZM276.163 233.336L376.643 -26.7642H701.711L802.19 233.336L539.18 394.086L276.163 233.336Z" fill="white"/>
<path fill-rule="evenodd" clip-rule="evenodd" d="M706.144 -32.23H372.203L268.977 234.919L539.176 400.023L809.369 234.919L706.144 -32.23ZM266.969 236.06L266.3 235.657L370.283 -33.4839L370.542 -34.1479H707.811L811.794 234.993L812.053 235.657L539.177 402.392L266.969 236.06Z" fill="white"/>
<path fill-rule="evenodd" clip-rule="evenodd" d="M712.447 -38.9243H365.908L258.793 238.237L539.174 409.533L819.561 238.237L712.447 -38.9243ZM257.025 239.241L256.438 238.88L364.221 -40.0241L364.455 -40.6084H713.899L821.696 238.295L821.917 238.88L539.174 411.621L257.025 239.241Z" fill="white"/>
<path fill-rule="evenodd" clip-rule="evenodd" d="M829.734 240.642L718.74 -46.5259H359.623L248.622 240.642L539.178 418.126L829.734 240.642ZM247.093 241.508L246.575 241.194L358.17 -47.4818L358.365 -47.9917H719.997L831.585 240.69L831.781 241.194L539.69 419.608L539.178 419.927L247.093 241.508Z" fill="white"/>
<path fill-rule="evenodd" clip-rule="evenodd" d="M725.034 -54.1479H353.318L238.422 243.044L539.173 426.725L839.923 243.044L725.034 -54.1479ZM237.134 243.777L236.711 243.511L352.099 -54.9448L352.257 -55.375H726.09L841.484 243.092L841.642 243.511L539.174 428.233L237.134 243.777Z" fill="white"/>
<path fill-rule="evenodd" clip-rule="evenodd" d="M850.116 245.447L731.331 -61.7646H347.029L228.238 245.447L539.177 435.308L850.116 245.447ZM227.202 246.037L226.849 245.82L346.037 -62.4174L346.17 -62.7573H732.191L851.373 245.48L851.506 245.82L539.531 436.323L539.177 436.541L227.202 246.037Z" fill="white"/>
<path fill-rule="evenodd" clip-rule="evenodd" d="M860.294 248.413L737.622 -69.3867H340.731L218.052 248.413L539.17 444.821L860.294 248.413ZM217.256 248.865L216.984 248.706L340.073 -70.1421H738.279L861.368 248.706L539.435 445.603L539.17 445.768L217.256 248.865Z" fill="white"/>
<path fill-rule="evenodd" clip-rule="evenodd" d="M333.975 -77.5244L333.905 -77.3382L207.122 251.016L207.312 251.133L539.177 454.076L539.36 453.959L871.232 251.016L871.168 250.835L744.385 -77.5244H333.975ZM207.862 250.813L334.443 -76.9985H743.918L870.493 250.813L539.178 453.41L207.862 250.813Z" fill="white"/>
</g>
</g>
</g>
<defs>
<clipPath id="clip0_188_856">
<rect width="320" height="443" fill="white"/>
</clipPath>
</defs>
</svg>
