<svg width="21" height="20" viewBox="0 0 21 20" fill="none" xmlns="http://www.w3.org/2000/svg">
<path d="M18.9401 4.81994L13.1801 0.789938C11.6101 -0.310062 9.20014 -0.250062 7.69014 0.919938L2.68014 4.82994C1.68014 5.60994 0.890137 7.20994 0.890137 8.46994V15.3699C0.890137 17.9199 2.96014 19.9999 5.51014 19.9999H16.2901C18.8401 19.9999 20.9101 17.9299 20.9101 15.3799V8.59994C20.9101 7.24994 20.0401 5.58994 18.9401 4.81994ZM11.6501 15.9999C11.6501 16.4099 11.3101 16.7499 10.9001 16.7499C10.4901 16.7499 10.1501 16.4099 10.1501 15.9999V12.9999C10.1501 12.5899 10.4901 12.2499 10.9001 12.2499C11.3101 12.2499 11.6501 12.5899 11.6501 12.9999V15.9999Z" fill="#422291"/>
</svg>
