<svg width="25" height="24" viewBox="0 0 25 24" fill="none" xmlns="http://www.w3.org/2000/svg">
<path d="M11.7097 20.02C16.6858 20.02 20.7197 15.9861 20.7197 11.01C20.7197 6.03391 16.6858 2 11.7097 2C6.73362 2 2.69971 6.03391 2.69971 11.01C2.69971 15.9861 6.73362 20.02 11.7097 20.02Z" fill="#422291"/>
<path d="M22.6898 18.95C22.3598 18.34 21.6598 18 20.7198 18C20.0098 18 19.3998 18.29 19.0398 18.79C18.6798 19.29 18.5998 19.96 18.8198 20.63C19.2498 21.93 19.9998 22.22 20.4098 22.27C20.4698 22.28 20.5298 22.28 20.5998 22.28C21.0398 22.28 21.7198 22.09 22.3798 21.1C22.9098 20.33 23.0098 19.56 22.6898 18.95Z" fill="#422291"/>
</svg>
